<?xml version="1.0" encoding="utf-8"?>
<!-- Generator: Adobe Illustrator 21.1.0, SVG Export Plug-In . SVG Version: 6.00 Build 0)  -->
<svg version="1.1" id="Layer_1" xmlns="http://www.w3.org/2000/svg" xmlns:xlink="http://www.w3.org/1999/xlink" x="0px" y="0px"
	 viewBox="0 0 2292.4 2538.3" style="enable-background:new 0 0 2292.4 2538.3;" xml:space="preserve">
<style type="text/css">
	.st0{fill:#C2D3CB;}
	.st1{fill:#E7DBD3;}
	.st2{fill:#E2EDE8;}
	.st3{fill:#FFFFFF;}
	.st4{fill:#403D33;}
	.st5{fill:#726A56;}
	.st6{fill:#5E5746;}
	.st7{fill:#DD3114;}
	.st8{fill:#FF4217;}
	.st9{fill:#D8AD79;}
	.st10{fill:#B78B5A;}
	.st11{fill:#9B7550;}
	.st12{fill:#A1AF4A;}
	.st13{fill:#929B42;}
	.st14{fill:#FFAE5C;}
	.st15{fill:#939B48;stroke:#808334;stroke-width:12.6931;stroke-miterlimit:10;}
	.st16{fill:#808334;}
	.st17{fill:none;stroke:#808334;stroke-width:12.6931;stroke-miterlimit:10;}
	.st18{fill:none;stroke:#FFFFFF;stroke-width:12.6931;stroke-linecap:round;stroke-linejoin:round;stroke-miterlimit:10;}
	.st19{fill:#939B48;stroke:#808334;stroke-width:12.9843;stroke-miterlimit:10;}
	.st20{fill:none;stroke:#808334;stroke-width:12.9843;stroke-miterlimit:10;}
	.st21{fill:none;stroke:#FFFFFF;stroke-width:12.9843;stroke-linecap:round;stroke-linejoin:round;stroke-miterlimit:10;}
</style>
<g>
	<g>
		<path class="st0" d="M2093.1,77.1c0.4-5.6,0.7-11.2,1.1-16.8c-0.2,0.1-0.4,0.2-0.6,0.2C2093.4,66,2093.2,71.6,2093.1,77.1
			C2093,77.1,2093,77.1,2093.1,77.1z"/>
		<path class="st1" d="M2292.4,618c-2.1,8.1-4.3,16.2-6.5,24.3c-0.4,1.6-0.8,3.1-1.3,4.6c-1.1,3.8-2.1,7.5-3.1,11.3
			c-1.1,3.8-3.4,6.1-6.1,7.1c-8.3,11.7-20.3,21.5-34,27.5c-8.3,3.7-17,6.3-26,8.1c-2.2,1-4.6,1.4-6.9,1.2c-20,3.1-41.2,2.8-62,1.4
			c-7.1,7-14.3,13.9-21.6,20.6c-13.5,12.5-29.8,23.6-42.5,36.9c-1.2,0.9-2.4,1.9-3.7,2.8c-8.3,6.3-16.8,12.5-25.3,18.5
			c-30.2,21.1-62,38-94.3,55.3c-1.9,0.8-3.7,1.6-5.6,2.3c-7.1,2.8-14.3,5.5-21.5,8c-17.5,6-35.2,10.4-53.2,14.6
			c-8.7,1.1-17.4,1.8-26.2,2.3c-7.2,0.3-14.4,0.4-21.5,0.3c-1.9,0-3.8-0.1-5.7-0.2c-22.7-6.7-48.1-8.1-71-14.7
			c-11.6-3.4-23.1-7.1-34.6-11.1c-7.2-2.5-14.3-5.3-21.5-7.8c-0.3-0.1-0.6-0.2-0.9-0.3c-1.7-0.7-3.5-1.4-5.2-2.1
			c-58.4-23.5-116.4-47.4-176-67.8c-11.6-4-23.3-8-34.9-12c-7.3-2.6-14.5-5.1-21.8-7.8c-1-0.3-3-1.1-5.3-2c-4.9-2-14-5.6-14.2-5.7
			c-5.7-2.4-11.4-4.9-17-7.5c-14.2-6.4-28.2-13.3-41.8-20.9c-30-16.7-60.1-33.2-90.1-49.7c-0.9-3.4-1.8-6.8-2.6-10.2
			c-2.4-10.2-4.3-20.5-6.6-30.8c-0.2-0.8-0.3-1.5-0.5-2.2c-0.8-5.6-1.6-11.1-2.3-16.7c-0.7-5.7-1.4-11.4-2-17.1
			c-19.3-6.6-37-16.6-50.1-33.8c-29.9-39.1-26.3-91.7-6.9-137.2c-0.1-6.4,0.1-12.7,0.7-18.9c3.9-41.8,16.7-81.9,28.6-121.9
			c12.6-42.3,25.6-84.2,39-126.3c15-46.9,30.4-94.2,46.2-140.2H0.4v1871.5c18-17.6,37.2-34.7,56.7-51.2c8.1-6.9,16.8-13.3,24.8-20.4
			c2-1.6,4-3.1,6-4.7c18.6-14.1,37.6-27.7,57-40.8c37.8-25.5,76.9-49.1,117.3-70.3c18.5-9.7,39.6-17,57.5-27.8
			c1.6-0.7,3.2-1.4,4.9-2c11-4.4,22.1-8.7,33.2-12.7c39.3-14.1,79.1-23.2,119.7-32.5c2.3-0.3,4.6-0.6,6.9-0.9
			c8.6-1,17.3-1.8,25.9-2.3c20.9-1.4,41.6-0.9,62.5-0.1c9.8,1.4,19.6,3.2,29.4,5.3c8,1.8,15.9,3.8,23.7,6.1c2.1,0.6,4.2,1.3,6.2,1.9
			c22.8,14.1,50.2,23.1,73.4,37.3c11.7,7.2,23.2,14.7,34.6,22.4c7.1,4.9,14.1,10,21.2,14.9c0.3,0.2,0.5,0.4,0.8,0.6
			c1.7,1.3,3.4,2.5,5.1,3.8c56.9,43.1,113.3,86.4,172.4,126.5c11.6,7.8,23.1,15.6,34.6,23.5c7.2,5,14.4,9.9,21.5,15
			c0.9,0.7,3,2.1,5.2,3.7c4.7,3.6,13.6,10.3,13.9,10.5c5.5,4.3,11,8.7,16.4,13.2c13.6,11.2,26.9,22.9,39.5,35.3
			c27.9,27.1,55.9,54.2,83.8,81.2c-0.1,4-0.1,8-0.2,12c-0.4,11.9-1.4,23.7-1.9,35.6c0,0.9-0.1,1.8-0.1,2.6
			c-0.8,6.3-1.5,12.6-2.4,18.9c-3.9,27.5-9.1,54.9-15.7,81.9c-3.3,13.6-7,27.1-11.1,40.4c-2.2,7.2-6.7,16.4-9.8,25.2
			c-1.1,0.6-2.8,4.8-3.3,13.4c-2.3,5.4-4.6,10.8-7.1,16.2c-6.3,13.8-13.1,27.4-20.5,40.7c-6.5,11.8-13.5,23.4-20.9,34.6
			c-0.7,1-1.4,2.1-2.2,3.2c2.4-4.6,1.1-6-6,8c-17.7,20.1-35.8,38.6-55.8,56.3c-15.1,9.5-12.3,9.1-7.4,6c-0.9,0.7-1.7,1.3-2.6,2
			c-10.1,7.4-20.5,14.5-31.1,21.3c-22.3,14.4-45.4,27.4-69.2,39c0,0-2.4,1.3-5.2,2.8c-8.5,15.5-17.9,30.3-28.1,44.4
			c-2.2,3.6-4.4,7.2-6.7,10.7c-3.5,5.4-7.1,10.6-10.9,15.8h1456V618z"/>
		<path class="st2" d="M478.4,1854c22.6,1.7,45.2,3.3,67.8,5C523.7,1856.5,501.1,1854.9,478.4,1854z"/>
		<path class="st2" d="M918.4,2136.1c12.7-13.1,24.2-27.3,34-42.7c15.9-25,26.9-52.4,33.9-81c-20.6-4.2-39.8-12.7-56.6-25.1
			c-2.1,5-4.1,10.1-6.7,14.9c-5,9.5-11.3,18.4-18.4,26.4c-8.1,9.2-16.8,16.1-26.4,21.4c-2.2,9.6-5.2,19.1-8.9,28.3
			c14.7,21.4,26.8,44.5,36.3,68.6c1.6-0.9,3.2-1.9,4.7-2.9C912.9,2141.6,915.6,2139.1,918.4,2136.1z"/>
		<path class="st3" d="M120.9,1850.3c43-22.6,96-32,142.5-40.3c53.2-9.5,107.1-14.6,161.1-15.1c98.9-0.9,198.2,12.6,292.5,42.7
			c69.8,22.3,144.5,61.4,161.6,139.3c3.6,16.4,4.6,32.7,3.3,48.6c5.2-6.1,10-12.3,14-18.6c7-10.8,11.1-23.1,16.3-34.7
			c-2.5-2.6-5-5.3-7.4-8.1c-9.1-10.8-2.6-24.6,10.9-26.3c24.6-3.1,48.6,6.9,71.1,19.8c16.6,3.7,33.2,7.5,49.7,11.4
			c0.9,0.2,1.7,0.5,2.5,0.9c0,0,0.1,0,0.1,0c0.4,0.2,0.8,0.4,1.1,0.6c6.2,3.1,10.6,10,7.9,16.9c-2.2,5.7-4.4,11.3-6.7,17
			c-3.6,9.1-13.2,14.6-22.6,9.2c-0.7-0.4-1.4-0.8-2.1-1.2c-1.1,0.8-2.4,1.5-3.7,1.9c-8.3,34.2-22.3,66-42.8,95.1
			c-4.5,6.3-9.7,14-15.7,21.7c-0.2,0.9-0.4,1.8-0.9,2.6c-6.6,12.9-16.8,21.3-28.7,29.2c-3.5,2.3-7.3,4.8-11.4,7.1
			c20.3,63.8,23.1,133.4,6.4,199.4c-9,35.4-22,67.9-38.3,97.8c2.9-1.5,5.2-2.8,5.2-2.8c23.8-11.6,46.9-24.7,69.2-39
			c10.6-6.8,20.9-13.9,31.1-21.3c0.9-0.6,1.7-1.3,2.6-2c-4.9,3.1-7.6,3.5,7.4-6c20-17.8,38.1-36.2,55.8-56.3c7.1-13.9,8.5-12.6,6-8
			c0.8-1.1,1.6-2.1,2.2-3.2c7.4-11.3,14.4-22.8,20.9-34.6c7.4-13.3,14.2-26.9,20.5-40.7c2.4-5.3,4.7-10.8,7.1-16.2
			c0.5-8.5,2.3-12.7,3.3-13.4c3.2-8.8,7.7-18,9.8-25.2c4-13.4,7.7-26.9,11.1-40.4c6.6-27,11.8-54.4,15.7-81.9
			c0.9-6.3,1.6-12.6,2.4-18.9c0-0.8,0.1-1.6,0.1-2.6c0.6-11.9,1.6-23.7,1.9-35.6c0.1-4,0.1-8,0.2-12c-28-27.1-56-54.1-83.8-81.2
			c-12.6-12.3-25.9-24-39.5-35.3c-5.4-4.5-10.9-8.9-16.4-13.2c-0.2-0.2-9.1-6.9-13.9-10.5c-2.2-1.6-4.2-3-5.2-3.7
			c-7.1-5-14.3-10-21.5-15c-11.5-7.9-23.1-15.7-34.6-23.5c-59.2-40.1-115.5-83.4-172.4-126.5c-1.7-1.3-3.4-2.5-5.1-3.8
			c-0.3-0.2-0.5-0.4-0.8-0.6c-7.1-4.9-14.1-10-21.2-14.9c-11.3-7.7-22.8-15.2-34.6-22.4c-23.1-14.1-50.6-23.1-73.4-37.3
			c-2.1-0.6-4.1-1.3-6.2-1.9c-7.8-2.3-15.7-4.3-23.7-6.1c-9.7-2.2-19.5-3.9-29.4-5.3c-20.9-0.8-41.6-1.2-62.5,0.1
			c-8.7,0.6-17.3,1.4-25.9,2.3c-2.3,0.3-4.6,0.6-6.9,0.9c-40.6,9.3-80.4,18.4-119.7,32.5c-11.2,4-22.2,8.3-33.2,12.7
			c-1.6,0.7-3.2,1.3-4.9,2c-17.9,10.8-39,18.1-57.5,27.8c-40.4,21.2-79.5,44.7-117.3,70.3c-19.4,13.1-38.4,26.7-57,40.8
			c-2,1.5-4.1,3.1-6.1,4.7c-8,7-16.6,13.5-24.8,20.4c-19.5,16.5-38.7,33.5-56.7,51.2v38.3c2-2,4.3-3.9,6.7-5.8
			C36.9,1881.2,80.1,1858,120.9,1850.3z"/>
		<path class="st4" d="M954,2133.9c0.4-0.9,0.7-1.8,0.9-2.6c5.9-7.7,11.2-15.3,15.7-21.7c20.5-29.1,34.5-60.9,42.8-95.1
			c1.4-0.4,2.6-1.1,3.7-1.9c0.7,0.4,1.4,0.8,2.1,1.2c9.4,5.4,19-0.1,22.6-9.2c2.3-5.6,4.5-11.3,6.7-17c2.7-7-1.7-13.8-7.9-16.9
			c-0.4-0.2-0.7-0.4-1.1-0.6c0,0-0.1,0-0.1,0c-0.8-0.3-1.6-0.6-2.5-0.9c-16.6-3.9-33.1-7.7-49.7-11.4
			c-22.6-12.9-46.5-22.9-71.1-19.8c-13.5,1.7-20,15.5-10.9,26.3c2.4,2.8,4.9,5.5,7.4,8.1c-5.3,11.6-9.4,23.9-16.3,34.7
			c-4.1,6.3-8.8,12.5-14,18.6c-0.7,8.3-1.9,16.4-3.7,24.4c9.6-5.4,18.4-12.2,26.4-21.4c7-8.1,13.4-16.9,18.4-26.4
			c2.5-4.8,4.5-9.9,6.7-14.9c16.8,12.4,36,20.9,56.6,25.1c-7,28.6-18,56-33.9,81c-9.8,15.5-21.3,29.6-34,42.7
			c-2.8,2.9-5.5,5.4-8,7.9c-1.5,1-3.1,1.9-4.7,2.9c-8.5,4.8-18,9-24.2,16.1c-5.2,6-1.4,14.2,6.2,14.9c8.8,0.9,18-3,26.3-7.7
			c4.1-2.3,7.9-4.8,11.4-7.1C937.2,2155.2,947.4,2146.8,954,2133.9z"/>
		<path class="st5" d="M854,2511.8c10.2-14,19.6-28.8,28.1-44.4c16.3-29.8,29.3-62.4,38.3-97.8c16.8-66,13.9-135.7-6.4-199.4
			c-8.3,4.7-17.5,8.6-26.3,7.7c-7.6-0.8-11.4-8.9-6.2-14.9c6.2-7.1,15.7-11.3,24.2-16.1c-9.5-24.1-21.7-47.2-36.3-68.6
			c3.7-9.2,6.7-18.6,8.9-28.3c1.8-8,3.1-16.2,3.7-24.4c1.3-15.9,0.3-32.2-3.3-48.6c-17.2-77.9-91.8-117-161.6-139.3
			c-94.3-30.1-193.7-43.6-292.5-42.7c-54,0.5-107.9,5.6-161.1,15.1c-46.5,8.3-99.5,17.7-142.5,40.3c-40.8,7.6-84,30.8-113.8,54
			c-2.4,1.9-4.7,3.8-6.7,5.8v628.2h836c3.7-5.2,7.4-10.4,10.9-15.8C849.6,2519,851.8,2515.4,854,2511.8z M760.3,2417.8
			c-2.1,3.4-5.6,5.2-9.4,5.2c-2.9,0.9-6.3,0.6-8.8-0.7c-5.4-2.8-5.9-9.3-3.7-14.2c1.2-2.8,3.6-5.3,5.4-7.8c3.2-4.5,8.3-6.6,13.5-4.4
			c5.1,2.1,7.5,7.5,6.3,12.8C762.7,2411.8,762,2414.9,760.3,2417.8z M691.8,2373.4c-12.7-14-9.7-37.7,0.6-53.3
			c13.3-20,40.2-33.4,62.2-18.4c25.2,17.2,11.2,49-4.1,67.5C735.6,2387.4,706.1,2398.9,691.8,2373.4z M45.3,2133.6
			c-1.5-1.1-0.6-3.9,1.4-3.2c0.7,0.2,1.3,0.5,2,0.7c-9.4-9-17.2-19-22.2-30c-1.2-2.7,1.3-5.8,4.2-4.2c21.7,12.2,39.1,30.7,60.7,43.4
			c16.6,9.8,34.5,17.5,52.8,23.9c18.2,4.8,36,10.3,54.3,15.4c37.7,8.5,76.3,13.4,114.6,16.6c122.4,10.4,244.4,3.8,365.3-17.3
			c6.2-1.1,11,1.6,14,5.6c23.5-1,31.9,34.9,6.9,42C489.5,2286.3,225.8,2261.9,45.3,2133.6z M104.5,2078.9
			c47.4,13.4,89.7,41.4,137.2,55.7c52.2,15.7,102,15.4,155.5,19.7c11.8,0.9,16.1,19.6,3,22c-53,9.3-114.1-2.5-165-17.9
			c-47.4-14.4-102.5-35.5-132.3-77.1C101.9,2080,103.3,2078.6,104.5,2078.9z M448.6,2165.8c1.3-1.5,2.4-2.9,4.3-4
			c1.6-0.9,3.6-1.5,5.4-2c3.8-1,8.1-1.2,12-0.9c7.3,0.5,12.7,5.6,13,13c0.3,7.3-6.2,12.6-13,13c-4,0.2-8.2,0-12-1
			c-1.8-0.5-3.8-1.2-5.4-2.1c-2-1.1-3.1-2.5-4.4-4.1C443.8,2175.2,443.7,2168.3,448.6,2165.8z M739.5,2167.5
			c1.4-0.8,2.7-1.7,4.1-2.5c6.3-3.7,14-1.7,18.2,3.7c1.1,0.4,2.2,0.9,3.2,1.6c8.8,5.8,10.7,17,6.3,26.1
			c-4.2,8.6-14.4,13.5-23.7,11.1c-5.4-1.4-10.2-4.3-13.4-8.9c-3.8-5.6-4.4-12.2-1.5-18.2c0.1-0.2,0.2-0.3,0.4-0.5
			C732.7,2175,735.1,2170.2,739.5,2167.5z M34.2,1910.1c0.4-0.3,1,0.3,0.7,0.7c-11.5,17.7-14.8,36-10.8,52.7
			c1.7-8.7,5.4-17.1,11.3-24.7c1.1-1.4,2.3-2.9,3.5-4.3c-2.3,0.1-4-1.8-3.4-3.8c2-2.2,4.2-4.3,6.6-6.5c0.8-0.7,1.3-1.5,1.6-2.3
			c11.7-10.8,26.1-19.6,41.5-26.9c1.4-1.1,2.9-1.7,4.5-2.1c25-11.4,52.3-19.5,75.5-26.8c47.8-15,97-24.5,146.7-30.9
			c90.2-11.6,182.8-11.6,273,0.3c74.4,9.8,153.5,31.3,208.9,84.9c1-3.6,5.7-5.2,8.3-1.3c5.3,8.1,9.2,17.5,11.9,27.5
			c9.5,28.5,7.8,55.3-2,79c-5.6,19.5-15.4,39.2-31.8,46.2c-0.3,0.1-0.6,0.2-0.9,0.3c-3.9,3.7-8,7.2-12.2,10.5
			c-9.5,7.5-19.9,14.1-31.1,19.9c-9.7,5-19.9,9.4-30.4,13.1c-80.3,27.8-170.7,33.1-254.9,29.2c-88.5-4.1-176.2-22.5-259-53.8
			c-5-1.9-11.4-4.3-18.9-7.3c-13.9-5.6-31.4-13-49.5-21.9c-8-3.9-16.2-8.2-24.3-12.7c-30-3-63.2-31.6-76.5-53.5
			C6.1,1968.4,3.5,1927.9,34.2,1910.1z"/>
		<path class="st6" d="M692.5,2184.5c-3-4-7.9-6.6-14-5.6c-120.9,21.1-242.9,27.7-365.3,17.3c-38.3-3.3-77-8.1-114.6-16.6
			c-18.3-5.1-36.1-10.6-54.3-15.4c-18.3-6.4-36.2-14-52.8-23.9c-21.5-12.8-39-31.2-60.7-43.4c-2.9-1.6-5.4,1.5-4.2,4.2
			c5,11,12.8,21,22.2,30c-0.7-0.2-1.3-0.5-2-0.7c-2-0.7-2.9,2.1-1.4,3.2c180.5,128.3,444.2,152.7,654,92.9
			C724.4,2219.4,716,2183.5,692.5,2184.5z"/>
		<path class="st6" d="M734.2,2198.6c3.2,4.6,8,7.5,13.4,8.9c9.3,2.4,19.5-2.5,23.7-11.1c4.4-9.1,2.5-20.4-6.3-26.1
			c-1-0.7-2.1-1.2-3.2-1.6c-4.2-5.4-11.9-7.3-18.2-3.7c-1.4,0.8-2.7,1.6-4.1,2.5c-4.4,2.7-6.8,7.5-6.4,12.4
			c-0.1,0.2-0.3,0.3-0.4,0.5C729.8,2186.5,730.4,2193.1,734.2,2198.6z"/>
		<path class="st6" d="M817.3,1998.7c-1,7.9-2.8,17.3-5.5,26.8c9.8-23.7,11.5-50.5,2-79C818.5,1963.6,819.4,1982.3,817.3,1998.7z"/>
		<path class="st6" d="M56.9,2006.2c3.7,2.3,7.7,4.3,11.9,6c17.1-21,48.7-32.9,72.2-43.6c29.5-13.5,60.1-24.8,91.3-33.6
			c64.8-18.1,132.9-25.7,200.1-22.6c69,3.2,137.8,17,202,42.8c47.9,19.3,103.1,45.4,140.9,84.1c6.5-12.4,14.7-24.5,18.3-38.4
			c7.1-27.7,4.1-50.6,0-78.3c-0.1-0.8,0-1.6,0.2-2.3c-55.3-53.6-134.5-75.1-208.9-84.9c-90.2-11.9-182.8-11.9-273-0.3
			c-49.7,6.4-98.8,15.9-146.7,30.9c-23.2,7.3-50.5,15.3-75.5,26.8c-1.5,0.4-3,1-4.5,2.1c-15.4,7.4-29.8,16.2-41.5,26.9
			c-0.3,0.8-0.8,1.6-1.6,2.3c-2.4,2.2-4.6,4.3-6.6,6.5c-0.6,2,1.1,4,3.4,3.8c-1.2,1.4-2.4,2.8-3.5,4.3c-5.9,7.6-9.6,16-11.3,24.7
			C28.1,1980,39.3,1994.9,56.9,2006.2z M546.2,1859c-22.6-1.7-45.2-3.4-67.8-5C501.1,1854.9,523.7,1856.5,546.2,1859z"/>
		<path class="st7" d="M568,2093.9c8.6-0.1,17.2-0.1,25.8-0.2c-8.8-0.6-17.7-1.1-26.6-1.5C567.5,2092.7,567.8,2093.3,568,2093.9z"/>
		<path class="st7" d="M664.5,2104.1c3-0.7,6-1.3,9-2c-3.4-0.5-6.8-0.9-10.2-1.3C663.8,2101.8,664.2,2103,664.5,2104.1z"/>
		<path class="st7" d="M687.2,2011c-44.1-32.5-98.4-54.1-149.4-64.8c-38.5-8-78.1-10.2-117.3-5.9c-6.2,0.7-12.8,1.5-19.4,2.5
			c11.6,1.5,22.7,4.4,32.2,9.8c4,2.3,3.1,8.5-1.3,9.7c-27.1,7.6-60.6-0.2-88.8-0.8c-13-0.3-26.2-0.7-39.5-0.9
			c-70.6,13.8-138.1,44.9-180.6,100.9c18.1,8.9,35.6,16.3,49.5,21.9c46.2-37.9,111.7-57.2,169.4-67.6c4.1-0.7,8.2-1.4,12.2-2.1
			c0.6-0.4,1.1-0.8,1.7-1.2c3.6-2.6,7.3-2.3,10.3-0.5c54.6-7.3,109.6-5.7,164.1,3.3c10.4,1.7,6.9,16.8-2.4,17.4
			c-56,3.6-107.2,21.6-152.9,52.2c22.4-2.8,44.8-5,67.1-6.6c2.7-1.6,5.5-3.1,8.3-4.6c5.1-7.2,16.5-5.5,20,2.4
			c0.1,0.1,0.1,0.3,0.1,0.4c86.1-4.5,172.1-0.6,258.3,13.7c6.7,1.1,8.5,7,6.9,12.1c11.1-5.8,21.6-12.5,31.1-19.9
			C747.9,2050.2,719.6,2027.4,687.2,2011z M597,2041.9c-0.6,3.6-4.6,7.5-8.2,8.2c-14.4,2.7-35.2,9.7-49.4,3.8
			c-4.3-1.8-6.6-7-2.9-10.8c10.9-11,31.6-12.5,46-15.5c5.1-1.1,10.5,0.7,13.2,5.4C597.6,2036,597.5,2038.4,597,2041.9z"/>
		<path class="st8" d="M729,2090.3c-86.2-14.3-172.2-18.3-258.3-13.7c3.2,8.1-3.9,16.4-12.2,15.6c-4,1.3-8,2.7-12,3.6
			c-4.9,1.2-9.8,0.9-14.8,1.6c-3.7,0.5-8.2-4.3-4.3-7.4c3.9-3.1,7.3-6.8,11.4-9.6c1.1-0.8,2.3-1.4,3.4-2.1
			c-22.4,1.7-44.7,3.9-67.1,6.6c45.7-30.5,96.9-48.5,152.9-52.2c9.3-0.6,12.8-15.7,2.4-17.4c-54.5-9-109.5-10.6-164.1-3.3
			c6.8,4,10.1,15.9,1,19.8c-6.2,2.7-12.5,5.4-18.9,7.8c-6.3,2.4-12.7,3.4-19.3,4.9c-3.5,0.8-6.2-3.4-3.6-6.1
			c4.6-4.7,8.6-9.6,13.8-13.7c4.9-3.8,9.9-7.4,14.9-11c-4.1,0.6-8.2,1.3-12.2,2.1c-57.7,10.5-123.2,29.7-169.4,67.6
			c7.4,3,13.9,5.5,18.9,7.3c82.8,31.3,170.6,49.7,259,53.8c84.2,3.9,174.6-1.5,254.9-29.2c10.5-3.6,20.7-8,30.4-13.1
			C737.5,2097.3,735.7,2091.4,729,2090.3z M428,2032.1c4.5-7.7,13.5-9.6,19.8-15.2c6.1-5.3,15.5-4.1,18.8,3.7
			c3.3,7.9-2.5,15.5-10.6,16.1c-8.4,0.6-16.1,5.6-24.8,3.4C427.9,2039.2,426.3,2035.1,428,2032.1z M362.5,2081.9
			c-3.2,0.9-5.5-3.2-3.2-5.5c2.4-2.5,3.8-5.7,6.4-8.1c2.2-2,5.2-3.7,6.8-6.4c3.8-6.5,13.5-6.5,17.3,0c4,6.8-1.2,14.8-8.7,15.1
			c-2.8,0.1-6,2.1-8.6,3C369.3,2081.3,365.8,2081,362.5,2081.9z M540.2,2099.4c-5.8,2-11.7,3.4-17.3,6.3c-4.5,2.4-9.6-3.6-5.6-7.3
			c4.9-4.5,8.6-9.8,12.6-14.9c2.8-8.4,14.6-12.4,21.2-3.9C558,2088.5,549.7,2100.4,540.2,2099.4z M568,2093.9
			c-0.2-0.6-0.5-1.2-0.8-1.7c8.9,0.4,17.7,0.9,26.6,1.5C585.2,2093.8,576.6,2093.8,568,2093.9z M664.5,2104.1
			c-0.3-1.2-0.7-2.3-1.2-3.4c3.4,0.4,6.8,0.9,10.2,1.3C670.5,2102.8,667.5,2103.4,664.5,2104.1z"/>
		<path class="st8" d="M582.6,2027.6c-14.4,3-35.2,4.4-46,15.5c-3.7,3.8-1.5,9,2.9,10.8c14.2,6,35-1.1,49.4-3.8
			c3.6-0.7,7.6-4.5,8.2-8.2c0.5-3.5,0.6-5.9-1.2-9C593.1,2028.2,587.7,2026.5,582.6,2027.6z"/>
		<path class="st3" d="M325.6,2038.5c-2.6,2.7,0,6.9,3.6,6.1c6.6-1.5,12.9-2.5,19.3-4.9c6.4-2.4,12.6-5.1,18.9-7.8
			c9.1-4,5.9-15.8-1-19.8c-3-1.8-6.7-2-10.3,0.5c-0.6,0.4-1.1,0.8-1.7,1.2c-5,3.6-10,7.2-14.9,11
			C334.2,2028.9,330.1,2033.8,325.6,2038.5z"/>
		<path class="st3" d="M389.8,2062c-3.8-6.5-13.5-6.5-17.3,0c-1.5,2.6-4.6,4.4-6.8,6.4c-2.6,2.4-4,5.6-6.4,8.1
			c-2.3,2.3,0,6.5,3.2,5.5c3.3-1,6.8-0.7,10.1-1.8c2.6-0.9,5.7-2.9,8.6-3C388.6,2076.7,393.8,2068.8,389.8,2062z"/>
		<path class="st3" d="M431.3,2040.1c8.6,2.3,16.4-2.8,24.8-3.4c8.1-0.6,13.9-8.2,10.6-16.1c-3.3-7.8-12.7-9.1-18.8-3.7
			c-6.3,5.5-15.3,7.4-19.8,15.2C426.3,2035.1,427.9,2039.2,431.3,2040.1z"/>
		<path class="st3" d="M427.4,2090c-3.9,3.1,0.6,7.9,4.3,7.4c4.9-0.7,9.9-0.5,14.8-1.6c4-1,8-2.3,12-3.6c8.3,0.9,15.4-7.5,12.2-15.6
			c-0.1-0.1-0.1-0.3-0.1-0.4c-3.5-7.9-14.9-9.6-20-2.4c-2.8,1.5-5.6,3-8.3,4.6c-1.2,0.7-2.3,1.3-3.4,2.1
			C434.7,2083.2,431.3,2086.9,427.4,2090z"/>
		<path class="st3" d="M530,2083.6c-4.1,5.1-7.7,10.4-12.6,14.9c-4,3.7,1.1,9.7,5.6,7.3c5.6-2.9,11.5-4.3,17.3-6.3
			c9.5,1,17.7-10.9,10.9-19.7C544.6,2071.2,532.8,2075.2,530,2083.6z"/>
		<path class="st3" d="M750.5,2369.3c15.3-18.6,29.3-50.3,4.1-67.5c-21.9-15-48.9-1.6-62.2,18.4c-10.3,15.6-13.3,39.3-0.6,53.3
			C706.1,2398.9,735.6,2387.4,750.5,2369.3z"/>
		<path class="st3" d="M757.2,2395.8c-5.2-2.2-10.4,0-13.5,4.4c-1.8,2.5-4.2,4.9-5.4,7.8c-2.2,5-1.6,11.4,3.7,14.2
			c2.5,1.3,5.9,1.6,8.8,0.7c3.8-0.1,7.4-1.8,9.4-5.2c1.8-2.9,2.5-5.9,3.2-9.2C764.7,2403.3,762.3,2397.9,757.2,2395.8z"/>
		<path class="st3" d="M235.1,2158.3c50.9,15.4,112,27.2,165,17.9c13.2-2.3,8.8-21-3-22c-53.4-4.3-103.2-4-155.5-19.7
			c-47.4-14.3-89.8-42.3-137.2-55.7c-1.2-0.3-2.6,1.1-1.7,2.3C132.6,2122.8,187.7,2143.9,235.1,2158.3z"/>
		<path class="st3" d="M452.9,2181.9c1.6,0.9,3.6,1.6,5.4,2.1c3.8,1,8,1.2,12,1c6.8-0.4,13.3-5.7,13-13c-0.3-7.4-5.7-12.5-13-13
			c-3.9-0.3-8.2-0.1-12,0.9c-1.8,0.5-3.8,1.1-5.4,2c-1.9,1.1-3.1,2.4-4.3,4c-4.9,2.5-4.9,9.4-0.1,12
			C449.9,2179.4,451,2180.8,452.9,2181.9z"/>
		<path class="st4" d="M98.9,2049c8,4.5,16.2,8.7,24.3,12.7c42.5-56,110.1-87.1,180.6-100.9c13.2,0.2,26.4,0.6,39.5,0.9
			c28.2,0.6,61.7,8.4,88.8,0.8c4.3-1.2,5.3-7.4,1.3-9.7c-9.5-5.4-20.6-8.3-32.2-9.8c6.6-1,13.1-1.9,19.4-2.5
			c39.2-4.3,78.8-2.2,117.3,5.9c51,10.6,105.3,32.3,149.4,64.8c32.5,16.3,60.7,39.2,79.8,71.4c4.3-3.4,8.4-6.9,12.2-10.5
			c0.3-0.1,0.6-0.1,0.9-0.3c16.4-7,26.2-26.7,31.8-46.2c2.7-9.5,4.5-18.9,5.5-26.8c2.1-16.4,1.1-35.1-3.5-52.2
			c-2.7-9.9-6.6-19.4-11.9-27.5c-2.5-3.9-7.2-2.3-8.3,1.3c-0.2,0.7-0.3,1.4-0.2,2.3c4.1,27.7,7.1,50.6,0,78.3
			c-3.5,13.9-11.8,26-18.3,38.4c-37.8-38.7-93-64.8-140.9-84.1c-64.1-25.8-133-39.6-202-42.8c-67.2-3.1-135.3,4.5-200.1,22.6
			c-31.3,8.7-61.8,20-91.3,33.6c-23.5,10.8-55.1,22.6-72.2,43.6c-4.2-1.7-8.2-3.7-11.9-6c-17.6-11.3-28.8-26.2-32.8-42.7
			c-4-16.7-0.7-35,10.8-52.7c0.3-0.4-0.3-1-0.7-0.7c-30.7,17.9-28.1,58.3-11.8,85.4C35.7,2017.4,68.9,2046,98.9,2049z"/>
		<path class="st3" d="M1476.9,617.5c-49.9-9-99.8-17.9-149.7-27c-16.7-3.1-34-6.3-50.1-11.8c0.6,5.7,1.2,11.4,2,17.1
			c0.7,5.6,1.5,11.1,2.3,16.7c0.2,0.7,0.3,1.4,0.5,2.2c2.3,10.2,4.2,20.5,6.6,30.8c0.8,3.4,1.7,6.8,2.6,10.2
			c30,16.6,60.1,33.1,90.1,49.7c13.6,7.6,27.6,14.5,41.8,20.9c5.6,2.6,11.3,5,17,7.5c0.3,0.1,9.3,3.7,14.2,5.7
			c2.2,0.8,4.3,1.6,5.3,2c7.2,2.6,14.5,5.2,21.8,7.8c11.6,4.1,23.3,8,34.9,12c59.6,20.4,117.5,44.3,176,67.8
			c1.7,0.7,3.5,1.4,5.2,2.1c0.3,0.1,0.5,0.2,0.9,0.3c7.2,2.5,14.3,5.3,21.5,7.8c11.4,4,23,7.7,34.6,11.1c23,6.7,48.4,8,71,14.7
			c1.9,0.1,3.8,0.2,5.7,0.2c7.2,0.1,14.4,0,21.5-0.3c8.8-0.4,17.5-1.2,26.2-2.3c18-4.2,35.7-8.6,53.2-14.6c7.2-2.5,14.4-5.1,21.5-8
			c1.9-0.8,3.8-1.5,5.6-2.3c32.4-17.3,64.1-34.2,94.3-55.3c8.6-6,17-12.2,25.3-18.5c1.2-0.9,2.5-1.9,3.7-2.8
			c12.7-13.3,29-24.4,42.5-36.9c7.3-6.8,14.5-13.7,21.6-20.6c-19-1.3-37.7-3.4-55-4.6C1885,685.5,1680.3,654,1476.9,617.5z"/>
		<path class="st2" d="M1801,380.1c-0.4,0.1-0.8,0.2-1.2,0.2c0.8,0.2,1.6,0.5,2.4,0.7C1801.8,380.7,1801.4,380.4,1801,380.1z"/>
		<path class="st2" d="M1324.1,549.6c-0.4-0.1-0.8-0.1-1.2-0.2c0.7,0.2,1.4,0.4,2.1,0.7C1324.7,549.9,1324.4,549.7,1324.1,549.6z"/>
		<path class="st2" d="M2183.3,604.7c-0.1,0.6-0.2,1.1-0.3,1.7c0.5-0.6,1-1.2,1.6-1.8C2184.1,604.5,2183.7,604.6,2183.3,604.7z"/>
		<path class="st2" d="M2093,77.1C2093,77.1,2093,77.1,2093,77.1C2093.1,77.1,2093.1,77.1,2093,77.1C2093,77.1,2093,77.1,2093,77.1
			C2093,77.1,2093,77.1,2093,77.1z"/>
		<path class="st6" d="M1249.4,266.8c-11.9,40-24.7,80.2-28.6,121.9c-0.6,6.2-0.8,12.6-0.7,18.9c11-25.8,27.1-49.3,45.1-66.7
			c2.9-2.8,8.6,0,7.1,4.1c-8.7,23.9-22.3,45.7-32.7,68.6c2,1.6,3.1,4.3,1.4,7.3c-23.3,41.3,5.9,90.4,42.6,111.6
			c12.4,7.2,25.7,12.5,39.4,16.8c0.4,0.1,0.8,0.1,1.2,0.2c0.3,0.2,0.7,0.3,1,0.5c26.3,7.9,54.1,11.8,80.5,16.6
			c172.8,31,346.4,57.2,520.6,78.8c67.3,8.3,145,24.3,211,0.5c16.6-10.6,31.7-23.6,44.7-38.3c0.4-0.4,0.7-0.8,1.1-1.3
			c0.1-0.6,0.2-1.1,0.3-1.7c0.4,0,0.8-0.1,1.3-0.2c27.4-32.1,45.4-71.5,53.9-112.8c0.6-2.9,4.9-2.1,4.9,0.7
			c0.3,34.5-9.1,67.2-26.1,96.4c12.3-14.2,23.2-29.6,33.5-45.6c4.4-12.7,8.7-25.3,13-38c1.2-6.4,2.5-12.8,3.7-19.2
			c0.6-3.2,2.5-5.3,4.9-6.5c6.8-20.8,13.5-41.7,20.1-62.7V174.9c-14.7,35.4-33.2,69.6-49.7,104.1c-17.2,35.9-34,72.1-51.7,107.8
			c-14.4,29-31.4,57.7-58.9,76.2c-22.3,15-50.8,21.8-76.6,12.4c-17.1-6.3-32-19.6-38.5-36.4c-5.9,5.4-12.1,10.3-18.7,14.2
			c-36.1,21.6-80.8,20.9-121.4,8.7c-0.7,1.4-1.4,2.7-2.1,4.1c-14.2,26.3-32.1,52.9-54.3,73c-20.9,19-46.3,32.9-74.6,36.7
			c-12.2,1.7-29.5,2.2-43.4-2.3c-23.3,4.7-38.2-6.2-43.8-21.5c-0.7,0-1.4-0.1-2.2-0.4c-0.6-0.3-1.2-0.6-1.7-0.9
			c-2.5,0.3-5.2-0.8-5.9-3.4c-15.9-10.9-24.7-32.2-27.8-52.2c-4.9-16.1-6.4-33.3-4.6-46.8c0.5-3.5,1.2-7.1,2.1-10.8
			c-14.7,2.2-29.7,2.5-44.4,0.6c-13.3-1.7-28.6-5.6-43.7-11.8c-4.7-1.2-9.3-2.6-14-4.5c-12.9-5.1-25.3-13.7-34-24.7
			c-25.4-16.7-43.1-43.8-51.9-72.9c-6.5,2.2-14.1,2.1-22.8-1.3c-17.7-7-25.6-26.1-31.3-42.9c-7.9-23.5-12.7-48.1-14.7-72.8
			c-4.1-49.2,3.6-99.8,23-145.3c6.6-15.4,18.8-40.4,35.2-55.1c1.4-2.4,3.1-4.6,4.9-6.6h-90.4c-15.9,46-31.2,93.3-46.2,140.2
			C1275,182.6,1262,224.6,1249.4,266.8z M1957.7,528.6c2.5-0.1,4.9-0.1,7.4,0c15-10.3,37.7-11.8,54.5-9.4
			c23.9,3.4,44.3,19.6,56.9,39.5c4.9,7.7-3.2,14.7-10.2,13.2c-1.3,1.1-3,2-4.8,2.2c0.6,0.9,1.2,1.9,1.7,2.9
			c4.9,9.1-5,19.3-14.2,14.2c-16.3-9.1-28.3-22.6-46.5-29.2c-13.9-5-33.8-3.8-45.4-12.6c-1.9-1.5-3-4.1-1.9-6.2
			c-0.5-0.1-1-0.2-1.4-0.2C1943.9,541.5,1949.9,526,1957.7,528.6z M1882.2,486.4c1.7-0.9,3.5-1.6,5.4-2.2c0.7-0.2,1.3-0.5,2-0.7
			c1.1-0.4,1.5-0.4,0.2,0.1c3.7-1.5,7.2-2.1,10.8,0c2.3,1.4,4.2,3.8,4.9,6.4c1.8,6.6-3.3,13.8-10.3,13.6c-2.8-0.1-5.5,0.5-8.3,0.2
			c-4.3-0.5-7.6-2.6-9-6.8C1876.7,493.1,1878.7,488.3,1882.2,486.4z M1597.8,470.7c2.9,4.4,4.8,9.8,7,14.7c2.3,5.2,1,11.1-4.5,13.4
			c-5.7,2.4-10.7-0.9-12.8-6.1c-2-4.9-4.6-10-5.8-15.2C1579.5,467.6,1592.3,462.4,1597.8,470.7z M1387.5,429.4
			c-0.6-4,3.7-7.2,6.8-5.3c2.7-0.5,5.3,2.9,4,5.8c0,0.1-0.1,0.2-0.1,0.2c0.6,1.2,1.2,2.4,1.8,3.6c-0.3-2.5-0.3-5.1-0.1-7.6
			c0.5-5.9,7.4-9.5,11.9-4.9c9.6,9.5,13.1,23.5,17.9,35.8c4.5,11.5,10.8,23.6,12.9,35.9c1.2,1.9,1.3,3.9,0.7,5.8c0,0,0,0.1,0,0.1
			c0.4,8.4-7.7,10.8-13.8,8.2c-36.5-3.2-64.4-44.6-41.8-76.3C1387.6,430.2,1387.5,429.8,1387.5,429.4z"/>
		<path class="st6" d="M2165.5,47.6c-0.2,10.2-0.5,20.8-1.1,31.5c29-22.9,70.9-29.5,88.4,12.4c1.5,3.7,2.8,7.4,3.8,11.2
			c7.1-2.1,15-1.5,23.7,3.6c5.1,3,9.1,6.6,12.1,10.7V0.3h-99.4c-9.2,2-18.6,3.3-28.1,3.3C2165.6,18.5,2165.7,33.1,2165.5,47.6z"/>
		<path class="st6" d="M1607.6,398c-1.4,0.6-2.8,1.1-4.3,1.7c-1.4,0.5-2.7,1-4.1,1.5c3.6-1,7.3-2,10.9-3.1
			C1609.2,398.1,1608.4,398,1607.6,398z"/>
		<path class="st6" d="M1396.4,467.4c1.5,4.2,3.6,8.1,6.4,11.5C1400.7,475,1398.6,471.2,1396.4,467.4z"/>
		<path class="st6" d="M1441.3,17.6c0.1,0.2,0.1,0.3,0.2,0.5c0.1-0.2,0.2-0.5,0.3-0.7C1441.6,17.4,1441.4,17.5,1441.3,17.6z"/>
		<path class="st4" d="M1439.9,503.1c-1,2.3-3.2,4.1-6.5,4c-1.3,0-2.7-0.1-4-0.2c6.1,2.6,14.2,0.2,13.8-8.2c0,0,0-0.1,0-0.1
			C1442.7,500.4,1441.5,502,1439.9,503.1z"/>
		<path class="st4" d="M1441.1,491.2c0.6,0.6,1.1,1.1,1.4,1.8c-2.1-12.3-8.5-24.4-12.9-35.9c-4.8-12.3-8.3-26.3-17.9-35.8
			c-4.6-4.5-11.4-0.9-11.9,4.9c-0.2,2.6-0.2,5.1,0.1,7.6c4.4,8.9,8.6,17.9,13.9,26.4C1421.6,472.2,1430.7,481.5,1441.1,491.2z"/>
		<path class="st4" d="M2055.8,573.1c-32.6-17-64.7-24.2-100.5-29.9c-1.1,2.2-0.1,4.8,1.9,6.2c11.6,8.8,31.5,7.6,45.4,12.6
			c18.2,6.6,30.1,20.1,46.5,29.2c9.2,5.1,19-5.1,14.2-14.2c-0.5-1-1.1-1.9-1.7-2.9C2059.8,574.5,2057.8,574.2,2055.8,573.1z"/>
		<path class="st4" d="M1650.5,409.3c-7.9,2.4-15.9,5-24,7.7c-31.1,10.1-64.1,17.2-96,9.3c15.1,6.1,30.4,10.1,43.7,11.8
			c14.7,1.8,29.7,1.5,44.4-0.6c-0.9,3.7-1.7,7.4-2.1,10.8c-1.8,13.4-0.3,30.6,4.6,46.8c-0.9-6-1.3-11.8-1.2-17.3
			C1620.4,451.3,1631.6,427.1,1650.5,409.3z"/>
		<path class="st4" d="M2280.3,106.3c-8.8-5.1-16.7-5.7-23.7-3.6c5.9,22.3,3.4,46.2,0.5,68.8c-4,30.7-11.5,60.8-21.9,90
			c-21.3,59.4-55,114.3-98.5,160c-17.1,18-38.3,41.6-65.3,42.1c-18.3,0.3-37.8-11.5-37.1-31.4c0.1-1.6,0.5-2.8,1.3-3.8
			c-0.9-2.4-1.7-4.9-2.4-7.3c25.4-30.8,41.3-72.8,47.6-109.9c1.1-6.7,1.9-13.3,2.4-19.7c0.2-2.8-4.1-4-5.3-1.4
			c-15.2,32-23.2,66.6-42.4,97c-5.7,9-12.1,16.7-18.9,23.7c-5.1,4.7-10.5,9.2-16.2,13.4c-17.4,12.6-38.4,21.4-60.1,25
			c-3.2,2.1-6.7,2.3-9.7,1.3c-6,0.6-12,0.7-17.9,0.5c-13.4,1.2-25.4-1.8-36.4-7.3c-0.2-0.1-0.4-0.2-0.6-0.3
			c-1.4,0.4-2.9,0.4-4.6-0.2c-18.6-6.2-33.9-20.3-51.6-28.7c-3.9-1.9-7.8-3.5-11.8-5.1c-0.7-0.8-1.3-1.6-2-2.4
			c-18.4-20.7-49.5-35.7-77.1-27.6c-0.6,0.2-0.9,0.6-1.1,1.1c-0.4,1-0.1,2.3,1.1,2.5c25.8,4.3,49.9,9.8,65.8,32.7
			c6.2,8.9,10.7,19.2,13,29.8c1.7,7.6,1,15.4,1.5,23c-0.9,7-1.2,14.1-2.1,21.1c-8.1,15.9-21.7,30.1-33.8,41.5
			c-18.8,17.6-43.5,36.5-69.1,42.1c-0.4,0.1-0.8,0.1-1.2,0.2c13.8,4.6,31.2,4,43.4,2.3c28.3-3.9,53.6-17.7,74.6-36.7
			c22.2-20.2,40.1-46.8,54.3-73c0.7-1.3,1.4-2.7,2.1-4.1c40.7,12.2,85.4,13,121.4-8.7c6.5-3.9,12.8-8.8,18.7-14.2
			c6.5,16.8,21.3,30.1,38.5,36.4c25.8,9.5,54.3,2.7,76.6-12.4c27.5-18.5,44.5-47.1,58.9-76.2c17.7-35.7,34.5-71.9,51.7-107.8
			c16.5-34.5,35-68.8,49.7-104.1v-57.9C2289.4,112.9,2285.4,109.3,2280.3,106.3z"/>
		<path class="st4" d="M1487.2,16.9c-9,14.7-12.6,33.1-17.4,49.2c-6.9,22.9-15.9,44.2-15,68.5c0,1,1.5,1.5,2,0.5
			c9.7-20.3,12.1-42.3,18.9-63.4c1.9-5.8,4.2-11.6,6.7-17.4c3-7.2,6.2-14.5,8.8-21.8c0.5-1.5,1-3.1,1.5-4.6c0.1,0.2,0.2,0.5,0.3,0.7
			c2.3-7,4.9-13.8,7.6-20.7c1-2.6,2.1-5.5,3.2-7.5h-33.2C1477.2,3.3,1482.8,9.8,1487.2,16.9z"/>
		<path class="st4" d="M1429.3,0.3h-4.3c-1.8,2-3.4,4.3-4.9,6.7C1423.1,4.4,1426.1,2.3,1429.3,0.3z"/>
		<path class="st4" d="M1587.5,492.7c2.1,5.2,7.1,8.5,12.8,6.1c5.6-2.4,6.9-8.3,4.5-13.4c-2.2-4.9-4.1-10.3-7-14.7
			c-5.5-8.3-18.4-3.1-16.1,6.8C1582.9,482.7,1585.6,487.8,1587.5,492.7z"/>
		<path class="st4" d="M1886.9,503.7c2.7,0.3,5.5-0.2,8.3-0.2c7,0.2,12.1-7,10.3-13.6c-0.7-2.6-2.6-5-4.9-6.4
			c-3.6-2.1-7.2-1.5-10.8,0c1.3-0.6,0.9-0.5-0.2-0.1c-0.7,0.2-1.3,0.4-2,0.7c-1.8,0.6-3.7,1.3-5.4,2.2c-3.5,1.9-5.5,6.7-4.3,10.5
			C1879.3,501.2,1882.6,503.2,1886.9,503.7z"/>
		<path class="st4" d="M2267.4,486c-1.2,6.4-2.4,12.8-3.7,19.2c-4.3,12.7-8.6,25.4-13,38c-10.3,15.9-21.2,31.4-33.5,45.6
			c17-29.2,26.4-61.9,26.1-96.4c0-2.8-4.4-3.5-4.9-0.7c-8.4,41.3-26.5,80.7-53.9,112.8c-0.5,0.6-1,1.2-1.6,1.8
			c-0.4,0.4-0.7,0.8-1.1,1.3c-13.1,14.8-28.1,27.7-44.7,38.3c-66,23.8-143.7,7.8-211-0.5c-174.2-21.6-347.9-47.8-520.6-78.8
			c-26.4-4.7-54.2-8.7-80.5-16.6c-0.7-0.2-1.4-0.4-2.1-0.7c-13.7-4.2-27-9.6-39.4-16.8c-36.7-21.3-65.8-70.3-42.6-111.6
			c1.7-3,0.6-5.7-1.4-7.3c10.4-22.9,24-44.7,32.7-68.6c1.5-4.1-4.2-6.9-7.1-4.1c-18,17.4-34.1,40.9-45.1,66.7
			c-19.4,45.5-23,98,6.9,137.2c13.1,17.2,30.8,27.2,50.1,33.8c16.1,5.5,33.4,8.7,50.1,11.8c49.9,9.1,99.8,18.1,149.7,27
			c203.4,36.5,408.1,68.1,614.5,81.5c17.3,1.1,36,3.3,55,4.6c20.9,1.4,42,1.8,62-1.4c2.3,0.2,4.7-0.2,6.9-1.2c9-1.8,17.7-4.4,26-8.1
			c13.7-6.1,25.7-15.8,34-27.5c2.7-1,5-3.3,6.1-7.1c1.1-3.7,2.1-7.5,3.1-11.3c0.5-1.5,0.9-3.1,1.3-4.6c2.2-8.1,4.4-16.2,6.5-24.3
			V416.9c-6.5,20.9-13.2,41.8-20.1,62.7C2269.9,480.7,2268,482.8,2267.4,486z"/>
		<path class="st9" d="M1906.7,7.8c0.4-1.5,0.8-3,1-4.5c-1.5,2.4-2.9,4.8-4.4,7.2c0.2,0.1,0.3,0.3,0.5,0.4
			C1904.8,9.9,1905.8,8.8,1906.7,7.8z"/>
		<path class="st9" d="M1492.8,28.6c0,0.1,0.1,0.2,0.1,0.3c-0.7,1.2-1.3,2.4-1.9,3.6c-2.6,7.3-5.7,14.6-8.8,21.8
			c-2.6,7.8-4.8,15.6-6.9,22.5c-8.8,28.7-14.6,58.1-18.1,87.9c-0.3,2.5-0.5,4.9-0.8,7.4c-5.2,22.2-8.5,45.2-9.8,67.9
			c-1.1,19-2.2,49.9,7.5,71.2c-0.5,0.8-1.2,1.6-2,2.1c0.3,1,0.6,2,0.9,2.9c11.8,35.7,40.3,69.2,80,71.9
			c38.8,2.6,76.5-20.1,114.4-34.6c-16-4.4-33.2-6.2-51-6.4c-0.6,0-1.1-0.4-1.3-0.9c-5.2,1.7-10.5,3.4-15.9,5.1
			c-3.4,1-5.2-3.8-2.4-5.6c30.2-18.9,72.2-24.6,107.2-23.8c27,0.6,52.8,5.6,77.5,15.1c18.1,2.9,35.6,5.4,54.8,2.1
			c8-1.4,15.9-3.4,23.6-5.9c18.9-26.9,35.8-54.5,50.1-84c-19.3-15.3-29.4-42.4-15.5-64.3c-1.2-2.8,0.1-6,2.7-7.6
			c1.3-2.8,4.1-5.2,7.5-5.6c12.9-1.6,23.8,2.5,32.3,9.8c7-21.3,12.8-42.9,17.7-64.8c-0.5-0.7-1-1.4-1.3-2c-1.8-3.3-1.4-7.6,1.3-10.3
			c0.9-0.9,1.9-1.5,2.9-1.9c5-25,8.9-50.2,11.6-75.6c1-8.9,1.8-17.4,2.5-26.4h-16.2c1.2,15-4,33-10.9,43.6
			c-10.8,16.6-33.5,31.1-54.4,29.9c-2.6,1.3-5.3,2.5-8.1,3.6c-4.1,1.7-6.9-1-7.6-4.4c-1-0.7-2-1.5-2.7-2.4c-2.6-1.6-4.3-4.7-3.2-7.9
			c0.5-1.4,1-2.6,1.5-4c-5.9-20.6-1-41.5,10.6-58.5h-72.4c-0.1,0-0.3,0.9-0.4,1.5c-14.3,65.7-27.6,129.4-33.6,196.5
			c-0.4,4.9-3.4,8.1-7.1,9.5c-0.1,0.1-0.1,0.1-0.2,0.2c-12.1,9.5-26.5,10.8-39.4,1c-14.5-11-15.6-29.8-14.6-46.6
			c2.8-44.3,11.9-88.7,25.1-131.1c3.3-10.5,6.9-21.2,10.8-31.2h-7.1c-4.4,16-12,30.5-21.7,41.9c-3.9,4.6-9,4.4-12.9,2
			c0.1,4,0.4,8,1.8,10.7c6.9,13.9-18,13.7-13.5,1.7c2.3-6.2,0.5-15.2,0.4-21.8c0-1.7,0-3.4,0-5c-3.4-1.7-5.9-4.9-5.4-8.6
			c-4.7-6.7-8.5-14-11.2-21h-155.9c-1.1,2-2.1,4.9-3.2,7.5C1497.7,14.7,1495.2,21.5,1492.8,28.6z M1812.4,154.7
			c-11,0-11-20.2,0-20.2C1826.4,134.4,1826.4,154.7,1812.4,154.7z M1826.3,254.7c-2.5,3.4-5,6.7-7.7,10c-3.1,3.8-9.4,3.5-13,0.8
			c-3.9-3-4.9-8.4-2.5-12.7c1.2-2.1,2.2-4.3,3.5-6.4c0.6-1.1,1.4-2,2.1-3c0.6-0.9,1.3-1.7,2-2.5c1.9-1.6,2.3-1.9,1.5-1
			c2.5-2.2,5.7-3,8.8-1.7c2.4,1,4.6,3.5,4.9,6.2C1827.9,247.4,1828.5,251.7,1826.3,254.7z M1496.4,289.3
			c-22.5-12.9-22.1-41.3-21.8-64.2c0.3-24-0.8-71,20.6-86.9c0.8-0.6,2.4-0.2,2.8,0.7c7.8,18.2-1.8,42.2-3.2,61.5
			c-1.3,18.6-7.3,59.4,11.8,71.2C1517.8,278.6,1507.8,295.8,1496.4,289.3z M1533.9,309.4c-4.5,2.6-9.4,0.8-12.3-3.2
			c-2.1-3-3.3-6.4-2.3-10c0.7-2.6,2.8-4.4,5.3-5.2c1.9-0.9,4.2-1.2,6.6-0.9c4.2,0.6,7.2,4.8,7.7,8.7
			C1539.5,303,1537.7,307.2,1533.9,309.4z M1615.1,226.5c-2.6,5.3-8.3,6.1-13,4.2c-0.6,0.1-1.3,0.2-1.9,0.2
			c-1.6,0.1-3.2-0.1-4.7-0.8c-1.7-0.6-3.3-1.6-4.7-2.9c-18.6-12.3-36.5-30.8-42.7-52.4c-0.8-2.9,0.6-5.8,2.8-7.5
			c0.5-5,5.2-10.1,10.2-9.5c2.2,0.3,4.4,0.7,6.5,1.2c0.7-1.4,2-2.6,3.8-3.3c15.3-6,32.7,6.9,40.8,19.2
			C1622.6,190.3,1623.1,210,1615.1,226.5z M1674.4,156.5c-3.2,4.1-9.4,4-13.3,1.2c-5.5-3.1-8.5-9.1-12.1-14.4
			c-4-5.8-8.3-11.6-9.7-18.6c-0.8-4,1.7-7.8,5.1-8.9c0.6-1,1.6-1.7,2.8-1.9c3.5-0.5,6.8-0.2,9.7,0.8c0.8-9.8,16.2-12.3,20.2-1.5
			c3.7,10,7.3,20,10.4,30.2C1690.4,152.7,1681.7,158.1,1674.4,156.5z M1695.7,246.6c1.7,1.7,2.8,4.3,2.8,6.7c0,2.6-1.1,4.8-2.8,6.7
			c-2.4,2.7-5.9,3-9.2,2.4c-1.2-0.2-2.4-0.8-3.5-1.3c-5.9-2.6-5.9-13.1,0-15.6c1.1-0.5,2.3-1.1,3.5-1.3
			C1689.9,243.6,1693.1,244.1,1695.7,246.6z M1587.7,33.3c0.4-2.3,1.6-4.4,3.5-5.8c3.6-2.8,9.1-2.6,12.4,0.7
			c2.3,2.4,4.3,5.1,6.4,7.8c1.7,2.2,2.7,4.2,2.9,6.9c0.1,2.6-1.2,5.1-2.9,6.9c-3.8,4.1-10,3.4-13.9,0c-2.2-1.9-4.3-3.7-6.5-5.6
			C1586.5,41.4,1586.2,36.9,1587.7,33.3z M1541.6,75.9c5.6,0,9.8,4.6,10,10c0.2,5.4-4.8,10-10,10c-5.6,0-9.8-4.6-10-10
			C1531.3,80.5,1536.3,75.9,1541.6,75.9z"/>
		<path class="st9" d="M2066.7,441.9c31.9,3.2,71.6-52.8,86.6-73c25.6-34.6,46.2-72.7,61.3-113c14.9-40,26-83.8,28.1-126.5
			c0.5-11.2-0.3-23.6-4.4-33.9c-1.1,0.2-2.3,0.2-3.5-0.1c-19.6-5.3-37.7,10.8-52,32.1c-0.4,3.3-0.8,6.6-1.3,9.9
			c4.2-1.9,9.8-0.2,11.4,5.1l0.3,0.8c0.5,1,0.8,2.2,1,3.5c0.3,2.1,0.5,4.3,0.7,6.4c0.5,5.5-4.9,9.7-9.9,9.9
			c-2.7,0.1-5.4-1.2-7.4-3.3c-7.5,37.8-19.5,75.1-32.2,109.8c-20,54.4-46.1,106.1-77.7,154.6c-7.8,0.8-16.5,0.1-19.9-3.2
			c-0.2-0.2-0.5-0.2-0.6,0c-0.2,0.2-0.4,0.4-0.6,0.6c0-0.2,0.1-0.4,0.1-0.8c0.1-1.5-2.4-1.5-2.3,0c0,0.9,0.1,1.2,0.7,1.9
			c0.1,0.1,0.2,0.1,0.3,0.1c-0.2,0.2-0.5,0.5-0.7,0.7c-0.8,0.8-1.2,2-1.2,3.1c0,0.3,0,0.6,0.1,0.9
			C2047.3,441.8,2056.7,444.4,2066.7,441.9z M2148.8,318.7c9.8-19.2,18.4-39,26.1-59.1c5.7-14.9,9.4-28.9,19.4-41.4
			c0.5-0.6,1.5-0.3,1.7,0.4c7.5,35.3-16.1,78.4-31.6,109.3C2159.2,338.2,2143.5,329.1,2148.8,318.7z M2141.3,344.2
			c5.2,0,9.1,4.3,9.4,9.4c0.2,5.1-4.5,9.4-9.4,9.4c-5.2,0-9.1-4.3-9.4-9.4C2131.7,348.5,2136.4,344.2,2141.3,344.2z"/>
		<path class="st10" d="M2035.5,428.4c1.8-2.3,5-3,7.7-1.8c-0.1-1.2,0.4-2.3,1.2-3.1c0.2-0.2,0.5-0.5,0.7-0.7c-0.1,0-0.2,0-0.3-0.1
			c-0.6-0.7-0.7-1-0.7-1.9c-0.1-1.5,2.4-1.5,2.3,0c0,0.4-0.1,0.6-0.1,0.8c0.2-0.2,0.4-0.4,0.6-0.6c0.2-0.2,0.5-0.2,0.6,0
			c3.5,3.3,12.2,4,19.9,3.2c31.6-48.5,57.8-100.2,77.7-154.6c12.7-34.6,24.7-72,32.2-109.8c-1.7-1.8-2.8-4.2-2.6-6.6
			c0.2-2.1,0.4-4.3,0.7-6.4c0.2-1.3,0.5-2.3,1-3.3c0.1-0.3,0.2-0.7,0.3-1c0.8-2.5,2.4-4.2,4.4-5.1c0.5-3.3,0.9-6.6,1.3-9.9
			c14.4-21.2,32.4-37.4,52-32.1c1.3,0.3,2.4,0.3,3.5,0.1c-4.7-12-13.9-21.1-30.3-21.8c-25-1.1-42.5,20.8-61.4,33.7
			c-2.3,1.6-5-1.1-4.2-3.5c-12.9,14.8-23.6,32.9-31.3,48.3c-2.7,21.8-6.1,43.6-10.2,65.3c-4.7,25-10.2,50.9-17.8,76.1
			c4.6-5.8,9-12.1,12.8-19.1c17.6-32.1,23.7-69.4,37.1-103.2c1.8-4.5,8.2-2.8,7.3,2c-7.4,39.4-22.7,75.2-42.5,110.3
			c-4.9,8.7-10.6,18.4-17.1,27.6c-6.2,37.2-22.2,79.1-47.6,109.9C2033.8,423.5,2034.7,426,2035.5,428.4z"/>
		<path class="st10" d="M1384.9,62c-19.4,45.5-27,96.1-23,145.3c2,24.7,6.8,49.3,14.7,72.8c5.7,16.8,13.5,35.9,31.3,42.9
			c8.7,3.4,16.3,3.5,22.8,1.3c8.8,29.1,26.4,56.2,51.9,72.9c-7.1-9-11.7-19.8-12-31.7c-0.1-2.1,3-2.9,3.9-1.1
			c27.8,53,75.9,50.2,124.6,36.9c1.4-0.5,2.7-1,4.1-1.5c1.4-0.5,2.8-1.1,4.3-1.7c0.8,0,1.7,0,2.5,0.1c27.7-8.3,55-18.9,78.5-23.5
			c35-6.8,71.6-5.3,105.9,4.2c1.7,0.5,3.5,1,5.3,1.5c0.4-0.1,0.8-0.1,1.2-0.2c-26.8-20.3-57.2-33.8-91.2-41
			c-22.2-4.7-43.5-5.7-66-4.1c-17.5,1.3-32.8,6-48.6,11.1c0.2,0.5,0.7,0.9,1.3,0.9c17.8,0.2,35,2,51,6.4
			c-37.9,14.6-75.6,37.2-114.4,34.6c-39.7-2.7-68.2-36.1-80-71.9c-0.3-1-0.6-1.9-0.9-2.9c-2.9,2.1-7,2.3-8.7-1.8
			c-2.2-5.2-4.1-10.6-5.6-16.2c-14.9-18.7-25.8-40.5-33.8-62.9c-7.1-20-18.5-50.6-10.3-71.5c0.8-2,3.6-2.7,4.8-0.6
			c10.2,17.6,9.7,42.2,16.5,61.7c2.6,7.6,5.8,14.8,9.2,21.8c-9.3-39.6-7.6-84.3-3-123.4c2.6-22.5,6.5-45.1,11.6-67.2
			c2.4-10.5,4.5-23.7,8.6-35.3c-0.1-0.2-0.1-0.3-0.2-0.5c0.1-0.1,0.3,0,0.4-0.1c2.4-6.6,5.5-13.1,9.8-17.1h-22.2
			c-3.2,2-6.2,3.9-9.2,6.6C1403.7,21.6,1391.5,46.5,1384.9,62z"/>
		<path class="st10" d="M1693.3,162.6c-1,16.7,0.1,35.5,14.6,46.6c12.8,9.8,27.2,8.4,39.4-1.1c0.1-0.1,0.1-0.1,0.2-0.2
			c-6.6,2.6-15.3-0.5-14.7-9.6c3.7-65.9,15.7-136.3,40.3-197.7c0.1-0.1,0.1-0.3,0.2-0.3h-44c-3.9,10-7.5,20.7-10.8,31.2
			C1705.2,73.8,1696.1,118.2,1693.3,162.6z"/>
		<path class="st11" d="M2006.8,260c-16.7,57.3-35.4,118.7-75.7,164.2c-28.8,3.8-58.4-4.7-82.8-30.6c-1.7-1.8-3.7-2.7-5.7-3.1
			c-3.6-3.7-7.2-7.3-10.9-10.8c-13.6-12.5-28.8-22.9-45.2-31.5c-8.2-4.3-16.5-8-24.9-11.3c-24.7-9.5-50.5-14.4-77.5-15.1
			c-35-0.8-77,4.9-107.2,23.8c-2.9,1.8-1.1,6.7,2.4,5.6c5.4-1.7,10.7-3.4,15.9-5.1c15.8-5.1,31.1-9.8,48.6-11.1
			c22.5-1.7,43.8-0.6,66,4.1c34,7.2,64.4,20.7,91.2,41c0.4,0.3,0.8,0.6,1.2,0.9c-0.8-0.2-1.6-0.5-2.4-0.7c-1.8-0.5-3.6-1-5.3-1.5
			c-34.4-9.5-70.9-11-105.9-4.2c-23.5,4.6-50.8,15.2-78.5,23.5c-3.6,1.1-7.3,2.1-10.9,3.1c-48.7,13.3-96.9,16.1-124.6-36.9
			c-1-1.9-4-1-3.9,1.1c0.3,12,4.9,22.7,12,31.7c8.7,11.1,21.1,19.6,34,24.7c4.6,1.8,9.3,3.3,14,4.5c31.9,7.8,64.9,0.8,96-9.3
			c8.1-2.6,16-5.2,24-7.7c2.8-2.7,5.8-5.2,9-7.6c20.8-15.5,44.5-22.1,67.8-21.3c0.2-0.5,0.6-1,1.1-1.1c27.6-8.1,58.7,6.9,77.1,27.6
			c0.7,0.8,1.3,1.6,2,2.4c4,1.6,7.9,3.3,11.8,5.1c17.8,8.5,33,22.5,51.6,28.7c1.6,0.5,3.2,0.5,4.6,0.2c0.2,0.1,0.4,0.2,0.6,0.3
			c11,5.5,23.1,8.4,36.4,7.3c5.9,0.2,11.9,0.1,17.9-0.5c3.1,1,6.5,0.9,9.7-1.3c21.6-3.7,42.7-12.4,60.1-25
			c5.7-4.2,11.1-8.6,16.2-13.4c6.9-7,13.3-14.8,18.9-23.7c19.2-30.3,27.1-65,42.4-97c1.2-2.5,5.6-1.3,5.3,1.4
			c-0.5,6.3-1.3,12.9-2.4,19.7c6.5-9.2,12.2-18.9,17.1-27.6c19.8-35.1,35.1-70.9,42.5-110.3c0.9-4.8-5.5-6.5-7.3-2
			c-13.4,33.8-19.5,71.1-37.1,103.2c-3.8,7-8.2,13.3-12.8,19.1c7.6-25.2,13-51.1,17.8-76.1c4.1-21.7,7.4-43.5,10.2-65.3
			c6.1-48.3,9-96.7,9.7-145.4c-0.2-2.2-0.3-4.3-0.4-6.3h-73c-0.5,21-1.7,42.8-3.6,64.2C2038,130.8,2025.5,196.2,2006.8,260z
			 M2094.1,60.3c-0.4,5.6-0.7,11.2-1.1,16.8c0,0,0,0,0,0.1c0,0,0,0-0.1,0c0,0,0,0,0,0c0.2-5.5,0.4-11,0.6-16.6
			C2093.8,60.4,2094,60.4,2094.1,60.3z"/>
		<path class="st11" d="M1698.2,22.2c-0.1,6.6-7.1,8.7-11.5,6.5c0,0,0,0.1-0.1,0.1c0.3,2,0.4,4,0.6,6c0.2,2.6,0.2,5.9,0.2,9.3
			c3.9,2.4,9,2.7,12.9-1.9c9.7-11.4,17.3-25.9,21.7-41.9h-17.2c-1.8,6-4,12.2-6.6,17.6C1698.3,19.4,1698.3,20.8,1698.2,22.2z"/>
		<path class="st11" d="M1870.4,74c20.9,1.2,43.6-13.4,54.4-29.9c6.9-10.6,12.1-28.7,10.9-43.7H1923
			C1918.9,31.3,1899.1,59.3,1870.4,74z"/>
		<path class="st11" d="M1687.6,143.5c-3.1-10.2-6.7-20.2-10.4-30.2c-4-10.8-19.4-8.3-20.2,1.5c13.6,4.4,20.6,22.5,19.5,36.1
			c-0.2,2.4-0.9,4.2-2,5.6C1681.7,158.1,1690.4,152.7,1687.6,143.5z"/>
		<path class="st11" d="M1590.8,227.2c1.3,1.3,2.9,2.3,4.7,2.9c-0.3-0.1-0.6-0.3-0.9-0.5C1593.3,228.8,1592.1,228,1590.8,227.2z"/>
		<path class="st11" d="M1571.5,155.7c-1.8,0.7-3.1,1.9-3.8,3.3c28.4,7,47.4,34.9,41.5,64.6c-0.8,4.3-4.9,6.9-9,7.2
			c0.7,0,1.3-0.1,1.9-0.2c4.7,1.8,10.4,1,13-4.2c8-16.4,7.5-36.1-2.8-51.6C1604.2,162.6,1586.9,149.7,1571.5,155.7z"/>
		<path class="st11" d="M1939.5,121.3c2.3,1.4,4.9,2.4,7.4,3.1c5.4,1.3,12.6,1.5,17.3-1.8c3.6-2.5,5.7-6.6,4.5-11
			c-0.8-2.8-3.1-5.4-5.9-6.5c-0.5,3.8-3.3,6.9-7.2,8.3c-2.2,0.8-4.4,1.7-6.7,2.3c-1.6,0.4-2.5,0.6-4.2,0.5c-1.1-0.1-1.7-0.1-2.9,0.1
			c-2.8,0.5-5.6-0.4-7.1-2.9c-1.4-2.3-1.1-5.8,1-7.6c1.3-1.1,2.3-2.5,3.4-3.7c-0.4,0.1-0.9,0.2-1.3,0.3c-1,0.4-2,1-2.9,1.9
			c-2.7,2.7-3.1,7-1.3,10.3c0.3,0.6,0.8,1.3,1.3,2C1936,118.2,1937.6,120,1939.5,121.3z"/>
		<path class="st11" d="M1918.6,200c10.1,13.2,15.2,28.9,15.3,45.5c0,2.7-1,4.7-2.4,6.1c0.3,4.6-2.4,9.3-8.5,9.4
			c-2.2,0-4.4-0.1-6.6-0.4c6,3.2,15.2,1.9,18.5-6.3c9.1-22.7,1.8-56.2-17.7-72.8c-8.5-7.3-19.4-11.4-32.3-9.8
			c-3.4,0.4-6.2,2.8-7.5,5.6c0.9-0.5,1.9-0.9,3-1C1895.1,174.7,1910.3,189.1,1918.6,200z"/>
		<path class="st11" d="M1732.7,198.3c-0.5,9.1,8.2,12.2,14.7,9.6c3.6-1.5,6.7-4.7,7.1-9.6c6-67.2,19.3-130.7,33.6-196.5
			c0.1-0.6,0.3-1.5,0.4-1.5h-15.3c-0.1,0-0.1,0.1-0.2,0.3C1748.4,62,1736.5,132.4,1732.7,198.3z"/>
		<path class="st11" d="M2146.6,107.3c18.9-12.8,36.4-34.7,61.4-33.7c16.5,0.7,25.6,9.8,30.3,21.8c4,10.3,4.9,22.7,4.4,33.9
			c-2,42.8-13.1,86.6-28.1,126.5c-15.1,40.3-35.7,78.4-61.3,113c-15,20.2-54.7,76.3-86.6,73c-10,2.6-19.4-0.1-23.3-14.4
			c-0.1-0.3-0.1-0.6-0.1-0.9c-2.8-1.2-6-0.5-7.7,1.8c-0.7,1-1.2,2.2-1.3,3.8c-0.8,19.9,18.8,31.7,37.1,31.4
			c27-0.5,48.2-24.2,65.3-42.1c43.5-45.7,77.3-100.6,98.5-160c10.5-29.2,17.9-59.2,21.9-90c2.9-22.6,5.4-46.5-0.5-68.8
			c-1-3.8-2.2-7.5-3.8-11.2c-17.5-41.9-59.4-35.3-88.4-12.4c-8.7,6.9-16.3,15.2-21.7,24.2c-0.1,0.2-0.2,0.4-0.2,0.5
			C2141.6,106.1,2144.4,108.8,2146.6,107.3z"/>
		<path class="st11" d="M2192.9,0.3H2138c8.9,2,17.9,3.5,26.9,3.5C2174.3,3.8,2183.7,2.3,2192.9,0.3z"/>
		<path class="st11" d="M1441.5,18c-4.1,11.7-6.2,24.9-8.6,35.3c-5.2,22.1-9,44.7-11.6,67.2c-4.5,39.1-6.3,83.8,3,123.4
			c-3.4-7-6.5-14.3-9.2-21.8c-6.8-19.5-6.3-44.1-16.5-61.7c-1.2-2.1-4-1.4-4.8,0.6c-8.2,20.9,3.2,51.4,10.3,71.5
			c8,22.5,18.9,44.3,33.8,62.9c1.5,5.6,3.4,11,5.6,16.2c1.7,4,5.9,3.8,8.7,1.8c0.8-0.6,1.5-1.3,2-2.1c-9.7-21.3-8.6-52.2-7.5-71.2
			c1.3-22.8,4.6-45.7,9.8-67.9c0.2-2.5,0.5-4.9,0.8-7.4c3.4-29.8,9.3-59.2,18.1-87.9c2.1-6.9,4.3-14.7,6.9-22.5
			c-2.5,5.9-4.8,11.7-6.7,17.4c-6.9,21.2-9.3,43.2-18.9,63.4c-0.5,1-1.9,0.4-2-0.5c-0.9-24.3,8.2-45.7,15-68.5
			c4.8-16.1,8.5-34.4,17.4-49.1c-4.4-7.1-10-13.6-16.7-16.6h-18.9c-4.3,4-7.4,10.6-9.8,17.1C1441.7,17.7,1441.6,17.8,1441.5,18z"/>
		<path class="st11" d="M1492.8,28.6c-0.1-0.2-0.2-0.5-0.3-0.7c-0.5,1.5-1,3.1-1.5,4.6c0.6-1.2,1.2-2.4,1.9-3.6
			C1492.9,28.8,1492.9,28.7,1492.8,28.6z"/>
		<path class="st11" d="M1589.7,44.2c2.2,1.9,4.3,3.7,6.5,5.6c3.9,3.4,10.1,4.1,13.9,0c1.7-1.9,3-4.3,2.9-6.9
			c-0.1-2.8-1.2-4.8-2.9-6.9c-2.1-2.7-4.1-5.3-6.4-7.8c-3.3-3.4-8.7-3.5-12.4-0.7c-1.9,1.5-3.1,3.6-3.5,5.8
			C1586.2,36.9,1586.5,41.4,1589.7,44.2z"/>
		<path class="st11" d="M1820.9,238.1c-3.1-1.3-6.3-0.5-8.8,1.7c0.9-0.9,0.4-0.6-1.5,1c-0.7,0.8-1.3,1.7-2,2.5c-0.8,1-1.5,1.9-2.1,3
			c-1.2,2.1-2.3,4.3-3.5,6.4c-2.4,4.3-1.4,9.7,2.5,12.7c3.6,2.8,9.8,3,13-0.8c2.7-3.2,5.2-6.6,7.7-10c2.3-3,1.6-7.3-0.5-10.4
			C1825.5,241.6,1823.3,239.1,1820.9,238.1z"/>
		<path class="st11" d="M2194.8,153.1c-0.2-2.1-0.4-4.3-0.7-6.4c-0.2-1.4-0.5-2.5-1-3.5l-0.3-0.8c-1.6-5.3-7.2-7-11.4-5.1
			c-2,0.9-3.7,2.6-4.4,5.1c-0.1,0.3-0.2,0.7-0.3,1c-0.5,1-0.8,2.1-1,3.3c-0.3,2.1-0.5,4.3-0.7,6.4c-0.2,2.4,0.9,4.8,2.6,6.6
			c1.9,2.1,4.7,3.4,7.4,3.3C2189.9,162.8,2195.3,158.7,2194.8,153.1z"/>
		<path class="st8" d="M1720.8,436.1c15.8-8.8,39.6-15,59.2-12.6c-28.6-23.1-67.6-30-102.2-8.6c-22,13.6-37,36.7-38.1,62.8
			c-0.7,16.9,4.3,29,11,41.1C1660.1,484.2,1692.8,451.7,1720.8,436.1z M1693.3,423.8c0.2,0,0.5,0,0.7,0c3.9-0.3,6.9,3.4,7,7
			c0.2,3.6-3.4,7.3-7,7c-0.2,0-0.5,0-0.7,0c-3.9-0.3-6.8-3-7-7C1686.1,426.9,1689.6,424,1693.3,423.8z M1675.1,454.5
			c-2.5,1.5-4.6,3.5-6.1,6c-2.1,3.5-3.3,6.6-6.9,9c-3,2-6.7,0.4-8.5-2.2c-6.9-9.8,4.9-23.1,12.3-28.6c4-3,10.3-0.6,12.5,3.3
			C1680.9,446.3,1679.3,452,1675.1,454.5z"/>
		<path class="st12" d="M1676.1,29.9c0,1.6,0,3.2,0,5c0.1,6.7,2,15.6-0.4,21.8c-4.5,11.9,20.4,12.1,13.5-1.8
			c-1.4-2.8-1.7-6.8-1.8-10.8c-0.1-3.3,0-6.7-0.2-9.3c-0.2-2.1-0.3-4.1-0.6-6c0,0,0-0.1,0.1-0.1c-1.8-0.9-3.2-2.4-3.6-4.6
			c-2.8-2.5-4.3-6.6-2.2-11c0.9-1.9,1.8-3.6,2.7-5.4c0.1-2.5,0.2-5.4,0.2-7.4h-24.2c2.8,7,6.6,14.3,11.2,21
			C1670.3,25,1672.8,28.2,1676.1,29.9z"/>
		<path class="st13" d="M1680.8,13.1c-2.1,4.4-0.6,8.5,2.2,11c0.4,2.2,1.8,3.7,3.6,4.6c4.5,2.2,11.4,0.1,11.5-6.5
			c0-1.5,0.1-2.8,0.1-4.3c2.5-5.4,4.8-11.6,6.6-17.6h-21.1c-0.1,2-0.1,4.9-0.2,7.4C1682.7,9.6,1681.8,11.3,1680.8,13.1z"/>
		<path class="st13" d="M1850.3,58.8c-0.5,1.4-1.1,2.7-1.5,4.1c-1.1,3.3,0.6,6.2,3.2,7.9c-2-2.6-2.7-5.9-0.3-9.4
			c13.9-20,26.8-41,40-61h-30.8C1849.3,17.3,1844.4,38.2,1850.3,58.8z"/>
		<path class="st13" d="M1922.9,261c6,0,8.8-4.8,8.5-9.4c1.5-1.4,2.4-3.5,2.4-6.1c-0.1-16.6-5.2-32.2-15.3-45.5
			c-8.2-10.8-23.5-25.3-38.3-23.8c-1.1,0.1-2.1,0.5-3,1c-2.6,1.6-3.9,4.7-2.7,7.6c-13.9,21.9-3.8,49,15.5,64.3
			c7.6,6,16.6,10.2,26.2,11.5C1918.5,260.8,1920.7,261,1922.9,261z M1907.8,224.6c-3.9,2.5-8.9,0.6-11.2-2.9
			c-3.2-4.9-6.3-9.6-8.4-15.1c-1.1-2.9,0.7-6.6,3.3-8.1c2.8-1.6,6.3-1.1,8.7,1.1c4.3,4,7.3,9,10.6,13.8
			C1913.3,217.2,1911.3,222.4,1907.8,224.6z"/>
		<path class="st12" d="M1852,70.7c0.7,0.9,1.7,1.8,2.7,2.4c0.7,3.4,3.5,6,7.6,4.4c2.8-1.1,5.4-2.2,8.1-3.5
			c28.7-14.6,48.5-42.6,52.6-73.6h-31.3c-13.2,20-26.1,41-40,61C1849.3,64.8,1849.9,68.1,1852,70.7z M1907.8,3.3
			c-0.3,1.5-0.7,3-1,4.5c-1,1-1.9,2.1-2.9,3.1c-0.1-0.2-0.3-0.3-0.5-0.4C1904.8,8.1,1906.3,5.7,1907.8,3.3z"/>
		<path class="st12" d="M1900.1,199.6c-2.3-2.2-5.9-2.8-8.7-1.1c-2.6,1.5-4.4,5.1-3.3,8.1c2.1,5.6,5.2,10.2,8.4,15.1
			c2.3,3.6,7.4,5.4,11.2,2.9c3.5-2.3,5.5-7.4,2.9-11.2C1907.5,208.6,1904.4,203.6,1900.1,199.6z"/>
		<path class="st12" d="M1429.5,507c1.3,0.1,2.6,0.2,4,0.2c3.3,0,5.4-1.7,6.5-4c1.6-1.1,2.8-2.7,3.3-4.5c0.6-1.8,0.5-3.9-0.7-5.8
			c-0.4-0.6-0.8-1.2-1.4-1.8c-10.4-9.6-19.6-19-27.2-31.1c-5.4-8.4-9.5-17.5-13.9-26.4c-0.6-1.2-1.2-2.4-1.8-3.6
			c0-0.1,0.1-0.2,0.1-0.2c1.3-3-1.3-6.3-4-5.8c-3-1.8-7.3,1.4-6.8,5.3c0.1,0.4,0.2,0.8,0.2,1.2
			C1365.1,462.3,1392.9,503.7,1429.5,507z M1402.8,478.9c-2.8-3.4-4.9-7.3-6.4-11.5C1398.6,471.2,1400.7,475,1402.8,478.9z"/>
		<path class="st13" d="M1953.9,543c0.5,0.1,1,0.2,1.4,0.2c35.8,5.7,67.9,12.9,100.5,29.9c2,1,4,1.3,5.7,1.1
			c1.8-0.3,3.4-1.1,4.8-2.2c7,1.5,15-5.4,10.2-13.2c-12.6-20-33-36.1-56.9-39.5c-16.8-2.4-39.5-0.9-54.5,9.4c-2.5-0.1-4.9-0.1-7.4,0
			C1949.9,526,1943.9,541.5,1953.9,543z"/>
		<path class="st13" d="M1657,114.8c-2.9-1-6.2-1.3-9.7-0.8c-1.2,0.2-2.2,0.9-2.8,1.9c-3.4,1.1-5.9,4.9-5.1,8.9
			c1.3,7,5.7,12.8,9.7,18.6c3.6,5.3,6.5,11.3,12.1,14.4c3.9,2.7,10.1,2.8,13.3-1.2c1.1-1.4,1.8-3.2,2-5.6
			C1677.6,137.3,1670.5,119.2,1657,114.8z"/>
		<path class="st12" d="M1609.2,223.6c5.9-29.7-13.1-57.6-41.5-64.6c-2.1-0.5-4.3-0.9-6.5-1.2c-5-0.6-9.8,4.5-10.2,9.5
			c-2.2,1.8-3.6,4.6-2.8,7.5c6.2,21.6,24.1,40.1,42.7,52.4c1.3,0.8,2.5,1.6,3.8,2.4c0.3,0.2,0.6,0.3,0.9,0.5
			c1.5,0.7,3.1,0.9,4.7,0.8C1604.3,230.6,1608.4,227.9,1609.2,223.6z"/>
		<path class="st12" d="M1935.7,105.8c-2.1,1.8-2.3,5.3-1,7.6c1.5,2.5,4.3,3.4,7.1,2.9c1.3-0.2,1.8-0.2,2.9-0.1
			c1.7,0.1,2.6-0.1,4.2-0.5c2.3-0.6,4.5-1.5,6.7-2.3c3.9-1.4,6.7-4.6,7.2-8.3c0.2-1.6,0-3.3-0.7-5.1c-2.2-5.2-9-8.1-14.1-4.7
			c-2.3,1.5-4.6,3.1-6.8,4.8c-0.8,0.6-1.5,1.3-2.1,2C1938,103.3,1937,104.6,1935.7,105.8z"/>
		<path class="st7" d="M1772.9,531c12.2-11.4,25.7-25.6,33.8-41.5c0.9-7,1.2-14.1,2.1-21.1c-0.5-7.6,0.1-15.4-1.5-23
			c-2.3-10.6-6.9-20.9-13-29.8c-15.9-22.9-40-28.4-65.8-32.7c-1.3-0.2-1.6-1.5-1.1-2.5c-23.3-0.8-47,5.8-67.8,21.3
			c-3.2,2.4-6.2,4.9-9,7.6c-18.9,17.8-30.1,42-30.6,68.4c-0.1,5.4,0.3,11.3,1.2,17.3c3.1,19.9,11.9,41.2,27.8,52.2
			c0.7,2.6,3.4,3.8,5.9,3.4c0.6,0.3,1.1,0.6,1.7,0.9c0.8,0.3,1.5,0.4,2.2,0.4c5.6,15.3,20.5,26.2,43.8,21.5c0.4-0.1,0.8-0.1,1.2-0.2
			C1729.4,567.5,1754.1,548.7,1772.9,531z M1650.7,518.9c-6.7-12.1-11.7-24.3-11-41.1c1.1-26.1,16.2-49.2,38.1-62.8
			c34.5-21.4,73.6-14.5,102.2,8.6c-19.6-2.3-43.4,3.8-59.2,12.6C1692.8,451.7,1660.1,484.2,1650.7,518.9z M1682.3,545.6
			c-2-0.2-4-0.6-6-1.1c-4.3-1.1-6.7-5.1-7.1-9.3c-1.3-17.5,6.6-43.5,24-51.2c1.8-2.2,3.7-4.4,5.9-6.6c17.4-17.6,50.6-41.7,77.2-34.9
			c46.8,12-16.8,71.8-33.2,84c-11.7,8.7-25.2,17.8-39.2,22.2C1696,551.2,1687,550.7,1682.3,545.6z"/>
		<path class="st7" d="M1723.4,496.9c12,0,12-17.7,0-17.7C1713.4,479.2,1713.4,496.9,1723.4,496.9z"/>
		<path class="st7" d="M1745.4,507.3c11,0,11-17,0-17C1735.4,490.3,1735.4,507.3,1745.4,507.3z"/>
		<path class="st7" d="M1762.4,476.9c12,0,12-16.3,0-16.3C1752.4,460.6,1752.4,476.9,1762.4,476.9z"/>
		<path class="st4" d="M2111,152.1c7.8-15.4,18.5-33.5,31.3-48.3c0.1-0.2,0.1-0.4,0.2-0.5c5.4-8.9,13-17.3,21.7-24.2
			c0.6-10.7,0.9-21.3,1.1-31.5c0.3-14.5,0.1-29.1-0.6-44c-9,0-18-1.3-26.9-3.3h-17.7c0.1,2,0.2,4.1,0.4,6.3
			C2120.1,55.3,2117.1,103.8,2111,152.1z"/>
		<path class="st4" d="M1812.4,154.7c14,0,14-20.2,0-20.2C1801.4,134.4,1801.4,154.7,1812.4,154.7z"/>
		<path class="st4" d="M1541.6,95.9c5.2,0,10.3-4.6,10-10c-0.2-5.4-4.4-10-10-10c-5.2,0-10.3,4.6-10,10
			C1531.8,91.3,1535.9,95.9,1541.6,95.9z"/>
		<path class="st4" d="M1686.5,244.2c-1.2,0.2-2.4,0.8-3.5,1.3c-5.9,2.6-5.9,13.1,0,15.6c1.1,0.5,2.3,1.1,3.5,1.3
			c3.3,0.5,6.8,0.2,9.2-2.4c1.7-1.9,2.8-4.1,2.8-6.7c0-2.4-1.1-5-2.8-6.7C1693.1,244.1,1689.9,243.6,1686.5,244.2z"/>
		<path class="st8" d="M1743.2,526.5c16.4-12.2,80-72,33.2-84c-26.5-6.8-59.8,17.3-77.2,34.9c-2.1,2.1-4,4.3-5.9,6.6
			c-17.5,7.7-25.4,33.7-24,51.2c0.3,4.2,2.8,8.2,7.1,9.3c2,0.5,4,0.8,6,1.1c4.7,5.1,13.7,5.6,21.7,3.1
			C1718,544.3,1731.5,535.2,1743.2,526.5z M1762.4,460.6c12,0,12,16.3,0,16.3C1752.4,476.9,1752.4,460.6,1762.4,460.6z
			 M1745.4,490.3c11,0,11,17,0,17C1735.4,507.3,1735.4,490.3,1745.4,490.3z M1723.4,479.2c12,0,12,17.7,0,17.7
			C1713.4,496.9,1713.4,479.2,1723.4,479.2z"/>
		<path class="st10" d="M1937.8,102.4c0.4-0.2,0.8-0.3,1.3-0.3c0.6-0.7,1.3-1.4,2.1-2c2.2-1.7,4.5-3.2,6.8-4.8
			c5-3.3,11.9-0.4,14.1,4.7c0.7,1.7,0.9,3.5,0.7,5.1c2.8,1.1,5.2,3.7,5.9,6.5c1.2,4.4-0.9,8.5-4.5,11c-4.7,3.3-12,3.1-17.3,1.8
			c-2.6-0.6-5.2-1.7-7.4-3.1c-2-1.2-3.6-3-4.7-4.6c-4.8,21.9-10.7,43.5-17.7,64.8c19.4,16.6,26.7,50.2,17.7,72.8
			c-3.3,8.2-12.5,9.5-18.5,6.3c-9.6-1.3-18.6-5.5-26.2-11.5c-14.3,29.5-31.2,57.1-50.1,84c-7.7,2.6-15.6,4.6-23.6,5.9
			c-19.2,3.3-36.7,0.9-54.8-2.1c8.4,3.2,16.7,7,24.9,11.3c16.4,8.6,31.6,19,45.2,31.5c3.7,3.4,7.3,7.1,10.9,10.8
			c2,0.3,4,1.3,5.7,3.1c24.4,25.9,54,34.4,82.8,30.6c40.2-45.5,58.9-106.8,75.7-164.2c18.6-63.8,31.2-129.2,37-195.5
			c1.9-21.4,3-43.2,3.6-64.2h-95.5c-0.7,9-1.5,17.6-2.5,26.4C1946.7,52.2,1942.9,77.3,1937.8,102.4z"/>
		<path class="st3" d="M1665.8,438.7c-7.4,5.5-19.1,18.8-12.3,28.6c1.9,2.7,5.5,4.2,8.5,2.2c3.6-2.3,4.8-5.5,6.9-9
			c1.5-2.5,3.5-4.5,6.1-6c4.2-2.6,5.8-8.2,3.3-12.5C1676.1,438.1,1669.8,435.7,1665.8,438.7z"/>
		<path class="st3" d="M1693.3,437.8c0.2,0,0.5,0,0.7,0c3.7,0.2,7.2-3.4,7-7c-0.2-3.6-3.1-7.3-7-7c-0.2,0-0.5,0-0.7,0
			c-3.6,0.2-7.2,3-7,7C1686.5,434.8,1689.4,437.5,1693.3,437.8z"/>
		<path class="st3" d="M1506.7,271.7c-19.1-11.8-13.1-52.6-11.8-71.2c1.4-19.3,11-43.3,3.2-61.5c-0.4-1-2-1.3-2.8-0.7
			c-21.4,15.9-20.3,62.8-20.6,86.9c-0.3,22.9-0.7,51.3,21.8,64.2C1507.8,295.8,1517.8,278.6,1506.7,271.7z"/>
		<path class="st3" d="M1531.2,290.1c-2.4-0.4-4.7,0-6.6,0.9c-2.5,0.7-4.5,2.6-5.3,5.2c-1,3.7,0.2,7,2.3,10c2.8,4,7.8,5.8,12.3,3.2
			c3.8-2.2,5.6-6.4,5-10.6C1538.4,294.9,1535.3,290.7,1531.2,290.1z"/>
		<path class="st3" d="M2164.4,327.8c15.5-30.8,39.1-74,31.6-109.3c-0.1-0.7-1.2-1-1.7-0.4c-10.1,12.5-13.7,26.6-19.4,41.4
			c-7.7,20.2-16.3,39.9-26.1,59.1C2143.5,329.1,2159.2,338.2,2164.4,327.8z"/>
		<path class="st3" d="M2141.3,362.9c4.9,0,9.6-4.3,9.4-9.4c-0.2-5.1-4.1-9.4-9.4-9.4c-4.9,0-9.6,4.3-9.4,9.4
			C2132.1,358.6,2136,362.9,2141.3,362.9z"/>
	</g>
	<g>
		<path class="st1" d="M1053.8,2480.5c7.1-10.6-3.4-25.5-15.9-21.7c-1.7,0.5-2.9,1.4-3.7,2.6c-0.9-0.1-1.8,0.1-2.6,0.4
			c-1.5,0.7-2.7,2.2-2.8,4c-0.3,4.2,1.9,8,4.8,11.1c1.2,1.2,2.5,2.3,3.8,3.2C1042.2,2483.3,1049.9,2486.3,1053.8,2480.5z"/>
	</g>
	<g>
		<path class="st1" d="M143.1,1579.8c1.4-0.6,2.7-1.7,3.4-2.9c1.6-2.8,1.1-5.7-0.6-7.9c0.3-0.6,0.5-1.3,0.6-2.1
			c0.4-4.7-3.4-9.3-6.7-12.3c-3.6-3.3-8-5.5-12.8-6.6c-1.1-0.2-2-0.2-2.9,0c-2.4,0.6-3.9,2.8-4.3,5.5c-0.2,1.2-0.1,2.4,0,3.6
			c-0.3,0.4-0.6,0.7-0.9,1.1c-2.2,3.7-0.6,7.7,2.6,10.1c5,3.7,10,7.4,15,11.1C138.5,1580.9,141,1580.8,143.1,1579.8z"/>
	</g>
	<g>
		<path class="st3" d="M289.9,691.7c19.9-16.3,31.8-40.5,35.2-65.8c1.7-12.9,0.6-25.6-1.5-38.4c-1.7-10.7-4.3-22.6-0.5-32.9
			c0.8-2.2,2.1-4.3,3.6-6.1c-0.2,0.3,1-1.1,1.4-1.4c0.9-0.9,1.8-1.6,2.8-2.4c0.1-0.1,0.3-0.2,0.3-0.3c0.4-0.3,0.8-0.5,1.2-0.7
			c1-0.6,1.9-1.1,2.9-1.7c2.2-1.1,4.4-2.1,6.6-2.9c0.1,0,0.5-0.2,0.7-0.3c0.4-0.1,0.8-0.3,1.2-0.4c1-0.3,2-0.7,3-1
			c2.2-0.7,4.5-1.4,6.8-2.1c2.5-0.8,5-1.6,7.4-2.5c1.7,0.3,3.5-0.3,5-1.4c0.6-0.4,1.1-0.9,1.7-1.3c3.9-1.7,7.7-3.9,10.8-6.9
			c1.5-1.4,2.7-2.9,3.8-4.5c14.9-12.1,28.8-25.4,39-41.8c13.1-21.2,18.7-48.3,9.6-72.1c-4.6-12-13.3-20.9-22-30
			c-4-4.2-8.1-8.4-11.2-13.4c-3.3-5.2-5.6-10.9-7.2-16.8c-3.4-12.2-4.6-24.9-7.3-37.2c-2.5-11.4-6.8-22.3-13.6-31.8
			c-6.2-8.7-15.2-16.3-25.9-18.7c-11.1-2.5-21.9,0.1-31.7,5.4c-9.2,4.9-17.4,11.7-26.7,16.6c-4.4,2.3-8.2,3.9-13.1,4.7
			c-5.6,0.9-11.3-0.4-16.5-2.4c-12.1-4.8-21.4-14.5-31-22.9c-9.8-8.6-20.1-16-32.5-20.2c-22.8-7.8-48.4-5.4-70.1,4.4
			c-46.5,21-68.4,75.1-65.1,123.7c2,28,10.6,55.1,23.4,80.1c5.6,10.9,12.8,22.3,13.9,34.8c0.5,5-0.6,9.9-3.5,14
			c-2.7,3.8-7,6.6-11.1,9.1c-10.1,6.1-20,12-26.1,22.6c-5.8,10.2-8.1,22.1-7.2,33.8c2,26.2,19.2,47.5,37.8,64.7
			c10.8,10,22.3,19.2,33.8,28.5c10.7,8.7,21.4,17.5,32.4,25.8c20.8,15.7,44,29.7,70.4,33.2C245.5,715.7,270.7,707.4,289.9,691.7z
			 M213.9,685.7c-3.4,0.1-6.9-0.6-10.1-1.6c-6.6-2-13-6-17.5-11.3c-5.1-6.2,3.9-14.5,9.3-8.4c3.4,3.7,7.1,6.7,11.9,8.5
			c2.4,0.9,4.9,1.4,7.4,1.9c2.5,0.4,5.1,1.2,7.6,1.3c3.5,0.1,4.9,5.5,1.5,6.9C220.6,684.3,217.7,685.6,213.9,685.7z M169.6,595.7
			c-10.5-10.7-16.4-24.5-17.4-38.8c-5.4-15.4-5.5-32.2,2.3-47.4c6-11.7,16.6-20.7,27.8-27.1c4-2.3,8.2-4.2,12.5-5.9
			c-6.4-8.3-11.3-17.7-14.5-27.8c-6.2-19.7-4.7-41.2,4.3-59.8c8.8-18.4,24-33.7,42.4-42.6c34.9-16.9,79.9-7.5,105.6,21.3
			c4,2.9,7.8,6,11.1,9.5c3.2,1.9,6.1,4.1,8.8,6.8c11.8,11.5,18.8,27.6,20.1,43.9c1.4,16.8-3.7,33.5-13.4,47.2
			c-10,14-24.2,24.6-40.4,30.3c-18.4,6.5-38.9,6.4-57.6,1.2c-3.3-0.9-6.5-2-9.6-3.2c9.7,7.6,17.2,17.9,20.8,29.8
			c2.3-0.3,4.8,0.8,5.5,3.8c6.9,30.5-9.5,62.7-38.8,74.2C214.7,620.6,187.9,614.4,169.6,595.7z M101.7,299.8
			c7.5-15,19.9-27.6,34.5-35.8c7.2-4,15.2-7.1,23.4-8.6c8-1.4,21.9-2.7,26.5,5.9c1,1.9-0.1,5-2.5,5.3c-5.1,0.6-10.3-1.2-15.5-0.8
			c-4.8,0.4-9.7,1.8-14.2,3.4c-8.3,3.1-16,7.9-22.6,13.8c-6.8,6.1-12.4,13.3-16.7,21.4c-2,3.9-3.6,8-4.9,12.2
			c-1.4,4.6-1.4,10.9-5,14.2c-3.1,2.9-7.6,1.6-9.6-1.7c-2.7-4.5-0.1-11.3,1.2-16C97.7,308.4,99.6,304,101.7,299.8z M98.4,351
			c0-0.1-0.1-0.1-0.1-0.2c0.1,0.2,0.3,0.4,0.5,0.8c0.1,0.2,0.2,0.5,0.3,0.7c1,2,1.3,4.4,1.3,6.6c0.1,3.4-3.2,5.7-6.3,5.7
			c-3.2,0-5.9-3.2-5.7-6.3c0.1-1.4,0.4-2.8,0.8-4.2c0.1-0.6,0.4-1.1,0.6-1.7c0,0,0.1-0.2,0.2-0.6c-0.1,0.2-0.1,0.4-0.2,0.6
			c0,0,0.2-0.4,0.6-1.2c0.2-0.2,0.3-0.4,0.4-0.6c1.9-2.9,5.8-2.4,7.5,0.2C98,350.4,98.1,350.5,98.4,351z M350.2,271.8
			c1.3,2.9-0.7,5.5-3.7,5.8c-1.7,0.1-3.7,0-5.1,0.2c-1.9,0.3-2.5,0.9-3.9,2.1c-4.9,4.2-12.3-1.9-8.6-7.4
			C333.2,266,346.3,263.3,350.2,271.8z"/>
		<path class="st3" d="M196.1,437.4c0.1,0.7,0.2,1.4,0.3,2C196.3,438.8,196.2,438.1,196.1,437.4z"/>
		<path class="st3" d="M187.8,496.2c-0.3,0.2-0.6,0.4-1,0.6c1.1-0.5,2.2-1.1,3.3-1.5c0.2-0.3,0.5-0.5,0.7-0.8
			C189.8,495,188.8,495.6,187.8,496.2z"/>
		<path class="st1" d="M186.8,496.8c0.3-0.2,0.6-0.4,1-0.6c1-0.6,2-1.2,3.1-1.7c-0.2,0.3-0.5,0.5-0.7,0.8c10.1-4.3,21.2-6,32.5-4.4
			c3.2,0.4,6.3,1.1,9.3,2.1c-18.4-12.5-32.2-31.1-35.6-53.5c-0.1-0.7-0.2-1.4-0.3-2c-0.3-2-0.4-4.1-0.5-6.2
			c-0.6-17.5,5.1-35.4,15.8-49.2c10.8-14,26.1-23.8,43-28.8c17-5,35.4-4.4,52.3,1.2c9,3,18,7.5,26.1,13.2
			c-25.6-28.8-70.7-38.2-105.6-21.3c-18.4,8.9-33.6,24.2-42.4,42.6c-8.9,18.6-10.5,40.1-4.3,59.8c3.2,10.1,8.1,19.5,14.5,27.8
			c-4.3,1.7-8.5,3.6-12.5,5.9c-11.3,6.4-21.8,15.4-27.8,27.1c-7.8,15.2-7.7,32.1-2.3,47.4c-0.7-10.4,1.1-20.9,5.7-30.8
			C164,513.2,174.4,503,186.8,496.8z"/>
		<path class="st1" d="M95.1,329c2,3.3,6.5,4.6,9.6,1.7c3.6-3.4,3.6-9.6,5-14.2c1.3-4.2,2.9-8.3,4.9-12.2
			c4.2-8.1,9.8-15.3,16.7-21.4c6.6-5.9,14.3-10.7,22.6-13.8c4.5-1.7,9.4-3,14.2-3.4c5.2-0.5,10.4,1.4,15.5,0.8
			c2.4-0.3,3.5-3.3,2.5-5.3c-4.6-8.6-18.5-7.4-26.5-5.9c-8.1,1.5-16.2,4.5-23.4,8.6c-14.6,8.2-27,20.8-34.5,35.8
			c-2.2,4.3-4,8.7-5.4,13.3C95,317.7,92.4,324.6,95.1,329z"/>
		<path class="st1" d="M89.8,352.4c0.1-0.2,0.1-0.4,0.2-0.6C89.9,352.2,89.8,352.3,89.8,352.4z"/>
		<path class="st1" d="M90.8,350.6c-0.1,0.2-0.3,0.4-0.4,0.6c-0.4,0.8-0.6,1.2-0.6,1.2c-0.2,0.6-0.5,1.1-0.6,1.7
			c-0.3,1.4-0.7,2.8-0.8,4.2c-0.2,3.1,2.5,6.3,5.7,6.3c3.1,0,6.4-2.3,6.3-5.7c0-2.2-0.3-4.6-1.3-6.6c-0.1-0.2-0.2-0.5-0.3-0.7
			c-0.3-0.4-0.4-0.6-0.5-0.8C96.6,348.2,92.7,347.7,90.8,350.6z"/>
		<path class="st1" d="M98.3,350.8c0,0.1,0.1,0.1,0.1,0.2C98.1,350.5,98,350.4,98.3,350.8z"/>
		<path class="st1" d="M328.9,272.5c-3.7,5.5,3.8,11.6,8.6,7.4c1.5-1.3,2-1.9,3.9-2.1c1.4-0.2,3.4-0.1,5.1-0.2c3-0.2,5-2.8,3.7-5.8
			C346.3,263.3,333.2,266,328.9,272.5z"/>
		<path class="st1" d="M222.6,676c-2.5-0.1-5.1-0.9-7.6-1.3c-2.5-0.5-5-1-7.4-1.9c-4.8-1.8-8.5-4.7-11.9-8.5
			c-5.5-6-14.5,2.2-9.3,8.4c4.4,5.4,10.9,9.3,17.5,11.3c3.2,1,6.7,1.7,10.1,1.6c3.8-0.1,6.7-1.4,10.2-2.8
			C227.5,681.5,226,676.1,222.6,676z"/>
		<path class="st14" d="M239.1,611c29.3-11.5,45.6-43.7,38.8-74.2c-0.7-2.9-3.1-4.1-5.5-3.8c-3.6-11.9-11.1-22.2-20.8-29.8
			c3.2,1.2,6.4,2.3,9.6,3.2c18.7,5.2,39.2,5.3,57.6-1.2c16.2-5.7,30.4-16.3,40.4-30.3c9.8-13.7,14.8-30.4,13.4-47.2
			c-1.4-16.3-8.3-32.5-20.1-43.9c-2.7-2.6-5.6-4.9-8.8-6.8c-3.4-3.5-7.1-6.6-11.1-9.5c-8-5.7-17.1-10.2-26.1-13.2
			c-16.8-5.6-35.2-6.2-52.3-1.2c-16.9,5-32.1,14.8-43,28.8c-10.7,13.8-16.4,31.7-15.8,49.2c0.1,2.1,0.3,4.2,0.5,6.2
			c0.1,0.7,0.2,1.4,0.3,2c3.4,22.4,17.2,41,35.6,53.5c-3-0.9-6.1-1.6-9.3-2.1c-11.3-1.6-22.5,0.1-32.5,4.4c-1.1,0.5-2.2,1-3.3,1.5
			c-12.4,6.2-22.8,16.4-29,29.3c-4.6,9.8-6.5,20.4-5.7,30.8c1,14.3,7,28.1,17.4,38.8C187.9,614.4,214.7,620.6,239.1,611z
			 M245.4,579.9c-4.6,4.6-10.9-2.7-6.7-7.4c6.7-7.4,10.8-16.6,10.4-26.7c-0.2-5-1.6-10-3.9-14.5c-1.9-3.7-6.2-7.9-6.1-12.1
			c0-1.3,1.2-2.1,2.3-2.1c5.5-0.1,9.8,7.6,11.9,11.8c2.7,5.4,4.3,11.3,4.7,17.4C258.9,558.5,254.2,571.3,245.4,579.9z M229,589.4
			c-0.1,5.6-8.8,5.2-8.7-0.4C220.4,583.3,229.1,583.8,229,589.4z M298.3,475.8c0.1-5.9,9.2-5.4,9.1,0.5
			C307.3,482.1,298.2,481.7,298.3,475.8z M319.9,461.4c21-10.7,17.6-38.4,7.5-55.7c-4.9-8.3-11.9-15.4-19.9-20.7
			c-3.9-2.6-8.1-4.7-12.5-6.3c-2.3-0.9-4.7-1.8-7-2.7c-1.5-0.6-3.5-1.7-3.3-3.7c0.8-7.7,21.7,2.8,24.8,4.6
			c15.4,8.8,27.5,23.5,32.9,40.4c6,18.7,2.2,44.4-17.8,53.2C318.6,473,314,464.4,319.9,461.4z"/>
		<path class="st3" d="M342.4,417.2c-5.5-16.9-17.5-31.6-32.9-40.4c-3.1-1.8-24-12.3-24.8-4.6c-0.2,1.9,1.8,3.1,3.3,3.7
			c2.3,0.9,4.7,1.8,7,2.7c4.4,1.7,8.6,3.8,12.5,6.3c8,5.3,15,12.4,19.9,20.7c10.1,17.3,13.5,45.1-7.5,55.7c-5.9,3-1.3,11.6,4.7,9
			C344.6,461.6,348.4,435.9,342.4,417.2z"/>
		<path class="st3" d="M307.4,476.3c0.1-5.9-9-6.3-9.1-0.5C298.2,481.7,307.3,482.1,307.4,476.3z"/>
		<path class="st3" d="M253.4,528.8c-2.1-4.2-6.4-11.9-11.9-11.8c-1.2,0-2.3,0.8-2.3,2.1c-0.1,4.3,4.3,8.5,6.1,12.1
			c2.3,4.5,3.7,9.5,3.9,14.5c0.4,10.1-3.7,19.4-10.4,26.7c-4.2,4.6,2,11.9,6.7,7.4c8.8-8.6,13.5-21.4,12.7-33.7
			C257.7,540.2,256.1,534.3,253.4,528.8z"/>
		<path class="st3" d="M220.3,589c-0.1,5.6,8.6,6.1,8.7,0.4C229.1,583.8,220.4,583.3,220.3,589z"/>
	</g>
	<g>
		<path class="st12" d="M547.3,325.4c8.9-17.9,31.5-28.3,48.9-36.3c20.5-9.5,42.3-16.5,64.3-21.5c45.2-10.3,92-11.8,138.2-13.6
			c21.7-0.9,43.4-1.7,65.1-3.6c5.4-2.7,10.8-5.5,16.2-8.2c-28.6-2.1-56.4-6.3-81.5-10.9c-13-2.4-26-4.9-39.1-7.5
			c-27.3,0.9-54.3,4.6-79.2,10.6c-71,17-135.1,55.9-181.9,111.1c-11.9,12.7-20.2,26.4-31.8,40.6c-3.1,3.8,3.1,8.2,6.5,5.3
			c15-13.1,34.7-23.1,50.9-35.2c9.9-7.4,19.9-14.5,30.2-21.2c0,0,0,0-0.1,0C548.6,336.1,545,330.2,547.3,325.4z"/>
		<path class="st12" d="M547.3,463.3c25.5-38.3,69.9-64.2,107.3-89.9c40.6-28,82.6-53.9,125.5-78.3c7.9-4.5,16-8.9,24-13.3
			c-16.7,0.4-33.5,0.7-50.2,1.3c-33.9,14.7-66.6,32.3-97.4,52.6c-36.9,24.3-71.5,51.9-102.6,83.2c-29.6,29.9-59.4,63.7-77.3,102.2
			c-0.2,0.3-0.4,0.5-0.6,0.8c-1.1,1.4-1.5,2.8-1.5,4.2c-0.9,3.4,1.7,6.2,4.9,6.9c2.8,1.4,6.4,1.4,9-1.1
			c22.2-20.8,44.2-41.5,66.8-61.7c-0.7,0.3-1.5,0.6-2.2,0.9C548.6,472.8,545,466.8,547.3,463.3z"/>
		<path class="st12" d="M480.8,218.5c56.3-41.2,130.7-41.9,200.8-33.4c3.7-0.6,7.4-1.2,11.1-1.8c-0.7,0.9-1.1,1.9-1.5,3
			c22.6,3,44.7,6.9,65.4,10.6c53.9,9.5,109.7,20.8,164.7,15.9c10.9-1,21.5-2.6,31.7-4.7c9.8-4.4,19.7-8.6,29.7-12.6
			c2.3-0.9,4.7-1.9,7.1-2.9c1.8-2,4-3.9,6.3-5.5c-25.5-7.3-50.8-15.7-75.8-22.5c-27.4-7.5-54.7-14.9-82.3-21.7
			c-37.1-0.1-74.2,2-111.1,6c-53.3,5.8-106.4,15.8-157.9,30.9c-24.7,7.2-49.2,15.3-73.1,24.8c-19.7,7.8-52,16-61.3,37
			c-0.9,2-0.4,4.3,2,5.1c19.8,6.4,43.7-7.9,62.2-14.3c24.2-8.4,48.6-16.3,73.4-23.2c5.1-1.4,10.3-2.8,15.5-4.1
			c-34.6,2.7-68,10.6-101.8,22.6C480.8,229.4,476.6,221.6,480.8,218.5z M833,182.5c0.7,0,1.4-0.1,2.1-0.1
			c-9.1,0.7-18.2,1.6-27.2,2.6c-0.9-0.1-1.9-0.2-2.8-0.2C814.5,183.9,823.8,183.1,833,182.5z"/>
		<path class="st12" d="M851,289c-18.4,18.4-36.5,37.2-54.2,56.2c-29.4,31.4-57.9,63.7-85.4,96.8c-23.5,28.3-59.7,62.2-68.2,98.8
			c-0.9,4,3.1,7.7,6.9,5.6c18.1-9.5,30.6-26.9,43.7-42.3c13-15.3,26-30.5,39.2-45.5c27.3-31.2,55.4-61.8,84.3-91.7
			c28.9-29.8,58.6-58.9,89.1-87.1c2.1-2,4.3-4,6.5-5.9c-14,2.2-28.1,3.8-42.2,5C864.1,282.2,857.6,285.6,851,289z"/>
		<path class="st12" d="M926.2,325.3c-0.3-5.4-2.7-10-7.8-12.3c-4.3-1.9-11-1.6-14.3,2.3c-2.4,3-4.3,5.7-5.2,9.5
			c-0.6,2.3-1.1,4.6-1.6,6.9c-1.1,5.2-2.3,11.1-0.7,16.4c2.4,7.6,10.1,9.5,16.3,4.9c4-2.9,6.5-8.1,8.4-12.5
			C923.3,335.8,926.4,330.7,926.2,325.3z"/>
		<path class="st12" d="M900.9,94.6c0.9,0.6,1.7,1.1,2.7,1.5c3.9,3.4,8.4,7.4,13.4,7.6c3.5,0.9,7.3,0.5,9-3.3c0.9-2.2,0.9-4,0.4-5.9
			c0-4.9-3.6-9.5-6.7-13.5c-0.4-0.9-0.8-1.9-1.3-2.8c-4.1-6.9-13.4-9-19.5-3.3C892.8,80.7,894.3,90.1,900.9,94.6z"/>
		<path class="st13" d="M525.6,138.9c20.7-7.7,44.3-9.1,65.9-12.9c21.6-3.8,43.1-6.4,65-7c44.8-1.2,89.7,4.4,133.6,13.2
			c16,3.2,32,6.9,47.9,10.7c27.5,6.7,54.9,14.2,82.3,21.7c25,6.8,50.3,15.2,75.8,22.5c7.3-5.2,16.6-8.8,25.3-11.9
			c0.6-2.1,1.9-4.2,4.2-6c0.8-0.6,1.6-1.2,2.5-1.9c-31.5-0.4-60-10.7-89.5-22c-3.9-1.5-4.3-5.5-2.5-8c-6.5-1.6-12.9-3.2-19.3-4.9
			c-47.6-12.7-95.3-25.1-144.1-32.9c-44.1-7.1-88.8-9.9-133.4-5.7c-20.2,1.9-40.7,4.7-60.1,10.6c-20.9,6.3-38,18-57.1,27.9
			C517.6,134.5,521.2,140.5,525.6,138.9z"/>
		<path class="st13" d="M1043.8,203.8c-3,0.4-5.9-1-7.8-3c-2-0.5-3.9-1.2-5.8-2c-14.2,6.1-30.6,13.4-44.3,6.8
			c-1.4-0.7-2.1-2.8-1.6-4.2c1.2-3.3,3.1-6.3,5.5-8.8c-2.4,1-4.8,2-7.1,2.9c-10,4-19.8,8.2-29.7,12.6c-10.2,2.1-20.8,3.8-31.7,4.7
			c-55,5-110.8-6.4-164.7-15.9c-20.7-3.6-42.8-7.5-65.4-10.6c-3.2-0.4-6.4-0.8-9.6-1.2c-70.1-8.6-144.5-7.9-200.8,33.4
			c-4.2,3.1,0,10.9,4.9,9.2c33.8-12,67.2-19.9,101.8-22.6c15.5-1.2,31.3-1.4,47.4-0.5c42,2.5,83.3,11,124.5,19.2
			c13,2.6,26,5.2,39.1,7.5c25.1,4.5,52.9,8.8,81.5,10.9c-5.4,2.7-10.8,5.5-16.2,8.2c-21.6,1.9-43.4,2.7-65.1,3.6
			c-46.2,1.8-93,3.3-138.2,13.6c-22,5-43.8,12-64.3,21.5c-17.4,8.1-39.9,18.5-48.9,36.3c-2.4,4.8,1.2,10.7,6.8,9.5c0,0,0,0,0.1,0
			c20.9-4.5,39.3-20.3,59.4-28.1c23.8-9.2,48.9-14.5,74.1-18.2c21.9-3.2,44-4.6,66.1-5.5c16.7-0.6,33.4-0.9,50.2-1.3
			c-8,4.4-16,8.8-24,13.3c-42.8,24.4-84.9,50.3-125.5,78.3c-37.3,25.7-81.8,51.5-107.3,89.9c-2.3,3.5,1.3,9.4,5.7,7.8
			c0.7-0.3,1.5-0.6,2.2-0.9c41.2-15.7,76.2-47.5,112.6-71.8c41-27.4,82.8-53.6,125.6-78c19-10.8,38.3-21.3,57.7-31.4
			c6.5-3.4,13.1-6.8,19.7-10.1c14.2-1.1,28.3-2.7,42.2-5c24.1-3.9,47.9-9.6,70.9-18.5c22.4-8.6,43.3-20,62.3-34.6
			c6.6-5.1,15-11.4,22.2-18.7c4.6-0.6,7.5-3.6,8.9-7.3c-6.1,2.7-12.5,4.9-18.9,6.1C1053.4,202.2,1048.6,203.2,1043.8,203.8z"/>
		<path class="st3" d="M938.5,145.2c29.5,11.3,58.1,21.7,89.5,22c-0.8,0.6-1.7,1.2-2.5,1.9c-2.3,1.8-3.6,3.9-4.2,6
			c-8.6,3.2-18,6.8-25.3,11.9c-2.3,1.7-4.5,3.5-6.3,5.5c-2.4,2.6-4.2,5.5-5.5,8.8c-0.5,1.4,0.2,3.5,1.6,4.2
			c13.7,6.6,30.1-0.7,44.3-6.8c1.9,0.8,3.8,1.5,5.8,2c1.9,2.1,4.8,3.4,7.8,3c4.8-0.6,9.7-1.6,14.6-3c6.4-1.3,12.8-3.5,18.9-6.1
			c2.7-1.2,5.3-2.4,7.9-3.7c15.1-6.7,29.9-14.7,43.3-21c26.9-12.5,53.7-25.4,80-39.4c-2.8-0.5-5.5-1.6-7.9-3.5
			c-10.5-7.8-12.4-24.5-1.8-33.3c2-1.7,4.6-3,7.3-3.3c0.1,0,0.2,0,0.2-0.1c-1.5-0.4-3.1-0.4-4.7,0c-26.7,6.7-53,14.5-78.3,24.4
			c-13.3,0.1-23.4,6.3-35.1,12.5c-15.6,8.2-32.1,14.7-49.7,17c-31.4,4.1-66.1-3-96.9-8.9c-2.4-0.5-4.3,0.5-5.4,2
			C934.2,139.7,934.6,143.7,938.5,145.2z"/>
		<path class="st1" d="M1198.6,93.8c-10.6,8.8-8.7,25.5,1.8,33.3c2.5,1.8,5.2,3,7.9,3.5c8.3,1.5,17.2-2.6,22-10.1
			c7.2-11.5,0-25.6-11.9-29.9c-4.2-1.5-8.4-1.4-12.3-0.2c-0.1,0-0.2,0-0.2,0.1C1203.3,90.8,1200.6,92.1,1198.6,93.8z"/>
	</g>
	<g>
		<path class="st12" d="M1881,1250.6c14.2,4.2,25.9,13,34.2,24.6c4.2-8,10.8-14.9,18.5-19.3c14.2-8.2,29.9-7,44.6-1.6
			c1.9-21,12.2-42.4,30.7-52.5c9-4.9,17.9-5.9,26.5-4.3c-4.9-24.1-20-46.1-48.6-39.3c-14.6,3.5-24.2,14.9-25.5,29.8
			c-0.9,10.5,2.5,19.9,6.7,29.1c-5.3-2.4-11.4-3.6-18.4-3c-13.1,0.9-22.3,8.5-26.7,18.3c-20-11.2-45.6-12.3-59.1,8.3
			c-2.3,1.8-3.4,4.6-3.3,7.4C1867.7,1247.7,1874.7,1248.7,1881,1250.6z"/>
		<path class="st12" d="M1944,1274.4c4.9-1.6,10-2.5,15-2.8C1953.9,1271,1948.5,1272.1,1944,1274.4z"/>
		<path class="st12" d="M2087,1235.5c4.8-4.8,8.6-10.5,9.5-17.5c1.3-10.1-3.9-21.2-13.5-25.3c-10.5-4.6-22.4,1.8-26.5,12
			c-0.2,0.4-0.3,0.8-0.4,1.3c5.4,3.5,10.6,7.6,15.3,12C2077,1223.4,2082.2,1229.3,2087,1235.5z"/>
		<path class="st12" d="M1824,1308.5c-0.4-0.4-0.8-0.8-1.1-1.3c-3.7-4.5-9.8-6.5-15-3c-4.6,3.1-6.6,10.3-3,15c1.7,2.2,3.3,4.3,5,6.5
			c0.3,0.6,0.6,1.1,1,1.6c5.4,6.6,10.8,16.4,19.3,18.7c-0.3-1.8-0.7-3.6-1-5.5C1827.3,1330.2,1825.4,1319.4,1824,1308.5z"/>
		<path class="st13" d="M2048.9,1593.9c-13.5-43.5-36.9-79.6-68.1-112.5c-28-29.6-58.6-56.9-82.2-90.4c-21-29.9-31.4-60.3-30.9-96.7
			c0-1.7,2.4-1.9,2.6-0.2c4.4,39.2,29.1,77.3,53.8,106.9c27.3,32.7,60.1,60.3,87.1,93.3c52.4,63.8,67,142.7,77.4,222.3
			c1.3,0.1,2.7,0.3,4,0.5c-1-20-6.8-40.3-8.9-60.2c-2.1-19.7-3-39.4-2.8-59.2c0.3-29.8,3.6-59.3,9.1-88.4c4.7-13.6,8.6-27.6,13-40.6
			c7.6-22.1,15.4-44.1,22.5-66.3c12.6-39.4,22.1-80.4,14.7-121.7c-1.8-10.1-17.9-9-16,1.1c5.6,30.2,1.6,59.8-5.8,88.9
			c0.5-9.1,0.6-18.3,0-27.6c-0.3-4.2-0.8-8.9-1.5-13.9c1.2-15.3-2.9-33.5-5.6-44c-1.7-6.3-3.8-12.6-6.3-18.6
			c-1.1-8.2-5.5-16.3-11.9-22.2c-2-3-4.1-5.9-6.2-8.8c-4.7-6.3-9.9-12.2-15.6-17.5c-4.7-4.4-9.8-8.6-15.3-12
			c-6.5-4.1-13.4-7.2-20.5-8.6c-8.6-1.6-17.5-0.6-26.5,4.3c-18.5,10.1-28.8,31.5-30.7,52.5c-14.7-5.4-30.5-6.5-44.6,1.6
			c-7.6,4.4-14.3,11.3-18.5,19.3c-8.3-11.6-20.1-20.4-34.2-24.6c-6.3-1.9-13.3-2.8-20.4-2.6c-11.9,0.3-23.8,4-31.9,12.3
			c-3.5,1.8-6.4,5.2-6.6,9.5c-0.7,12.7,0.3,25.8,1.9,38.8c1.4,10.8,3.2,21.6,5.1,32c0.3,1.8,0.7,3.6,1,5.5
			c3.9,20.4,9.2,40.4,17.7,59.4c4.3,9.6,9.3,18.8,15.1,27.5c-9.2-6.6-17.8-14.2-25.6-23c-9.1-10.3-16.9-21.7-23.5-33.8
			c-6.6-12-10.8-25.6-18.9-36.7c-1.1-1.5-3.8-1.2-4.1,0.8c-2.6,23.1,12.4,47.9,25.4,65.9c15.7,21.7,36.2,40,59,54
			c8.7,5.3,17.9,9.7,27.3,13.5c12.4,8.8,25.7,16.5,38.4,24.5c39.8,25,72.6,57,95.3,98.4c20.7,37.8,30.6,80.4,34.4,123.1
			c0.5-0.2,1.1-0.5,1.6-0.7C2066.9,1677,2061.5,1634.4,2048.9,1593.9z M2068,1559c-18.3-61.5-46.6-121.1-61.3-183.6
			c-0.8-3.3,3.7-6,5.6-2.8c32.9,55.7,45.3,123.4,57,186.1C2069.6,1559.6,2068.3,1559.8,2068,1559z M2017.9,1306.1
			c-4.8,0.3-9-3.4-9.4-8.2c-0.8-8.1-2.5-17.1,1.1-24.8c1.9-4.1,7.1-3.9,9.7-0.7c5.3,6.5,5.6,16.2,6.8,24.2
			C2026.8,1301.4,2022.4,1305.8,2017.9,1306.1z M2095.1,1337.3c0.8,12.9,0.4,25.8-0.9,38.6c-2.5,25.6-7.7,52.9-24.1,73.4
			c-1.5,1.9-4.1,0.2-3.9-1.9c2.4-25.1,10.5-49.1,12.5-74.4c1.1-14.1,1-28.3-0.3-42.4c-0.9-9.9-3.4-19-0.1-28.5
			c1.3-3.9,6.4-3.1,8.5-0.6C2094.7,1310.7,2094.5,1325.7,2095.1,1337.3z M1968.3,1298.4c3.3,4.5,1.1,11-3.6,13.3
			c-5.1,2.5-10.7-0.1-12.7-5.2c-2.4-6-5.9-12.8-3.7-19.4c0.7-2,3.5-3.2,5.4-2.7C1960.3,1285.9,1964.5,1293.3,1968.3,1298.4z
			 M1959.1,1271.6c-5.1,0.3-10.1,1.2-15,2.8C1948.5,1272.1,1953.9,1271,1959.1,1271.6z M1909.4,1438.9c-1.6,3.8-5.7,5.1-9.5,4.8
			c-3-0.2-6.2-2.6-8.6-4.3c-2.3-1.6-4.3-3.5-5.1-6.3c-0.7-2.4,0-5.9,2.4-7.2c3.2-1.6,5.9-1.7,9.4-1.1c3.2,0.6,6.9,1.6,9.2,3.7
			C1910.2,1431.3,1910.9,1435.4,1909.4,1438.9z"/>
		<path class="st12" d="M1924.2,1401c-24.8-29.7-49.5-67.8-53.8-106.9c-0.2-1.7-2.6-1.5-2.6,0.2c-0.5,36.5,9.9,66.9,30.9,96.7
			c23.6,33.5,54.1,60.8,82.2,90.4c31.2,32.9,54.6,69,68.1,112.5c12.6,40.5,17.9,83.1,23.2,125.1c5.3-2,10.9-2.9,16.6-2.5
			c-10.4-79.6-24.9-158.4-77.4-222.3C1984.3,1461.3,1951.5,1433.7,1924.2,1401z"/>
		<path class="st12" d="M1948.2,1287.1c-2.2,6.6,1.2,13.3,3.7,19.4c2.1,5.1,7.6,7.8,12.7,5.2c4.7-2.3,6.9-8.8,3.6-13.3
			c-3.7-5.1-8-12.6-14.7-14C1951.7,1283.9,1948.9,1285.1,1948.2,1287.1z"/>
		<path class="st12" d="M2009.5,1273.2c-3.6,7.6-1.9,16.6-1.1,24.8c0.4,4.8,4.6,8.5,9.4,8.2c4.5-0.3,8.9-4.7,8.2-9.4
			c-1.2-8-1.6-17.7-6.8-24.2C2016.7,1269.3,2011.5,1269,2009.5,1273.2z"/>
		<path class="st12" d="M1898,1424.9c-3.4-0.7-6.2-0.5-9.4,1.1c-2.5,1.2-3.2,4.8-2.4,7.2c0.8,2.8,2.8,4.7,5.1,6.3
			c2.4,1.7,5.6,4,8.6,4.3c3.8,0.3,7.8-1,9.5-4.8c1.5-3.6,0.8-7.7-2.1-10.3C1904.9,1426.5,1901.2,1425.5,1898,1424.9z"/>
		<path class="st12" d="M2006.8,1375.4c14.7,62.5,43,122.1,61.3,183.6c0.2,0.8,1.5,0.5,1.4-0.3c-11.8-62.7-24.1-130.3-57-186.1
			C2010.5,1369.4,2006,1372.2,2006.8,1375.4z"/>
		<path class="st12" d="M2078.4,1302.1c-3.3,9.6-0.8,18.6,0.1,28.5c1.2,14.1,1.4,28.3,0.3,42.4c-2,25.3-10.1,49.3-12.5,74.4
			c-0.2,2,2.4,3.8,3.9,1.9c16.3-20.4,21.6-47.8,24.1-73.4c1.3-12.8,1.6-25.7,0.9-38.6c-0.7-11.6-0.5-26.6-8.3-35.8
			C2084.8,1299,2079.8,1298.1,2078.4,1302.1z"/>
		<path class="st8" d="M2159,1932.3c-7.2-0.8-18.3-0.5-23.2-6.6c-1.3-1.6-0.9-4.4,0.4-5.8c2.9-3.1,7.6-3.6,11.7-4
			c4-0.4,8.1-0.4,12.2-0.6c1.1,0,2.1,0.1,3,0.4c-2.2-16.4-5-32.7-8.1-48.9c-1.6-8.5-3.4-16.9-5.2-25.3c-2.1,2.3-5.3,3.3-8.6,3
			c-8.6-0.6-18.8-1.9-25.9-7.1c-2.5-1.8-2.3-6.6,0.5-8c8.5-4.4,19.5-3.8,28.8-3.1c0.7,0.1,1.4,0.2,2,0.5c-2-9-4-18-6-27
			c-2.4-10.7-4.3-22.2-7.1-33.4c-2.1,1.4-4.6,2-7.2,1.3c-4-1-8.1-2-12.1-3.2c-4.1-1.3-7.8-3.2-11.8-4.5c-5.7-1.9-3.3-10.6,2.1-11
			c3.9-0.3,7.6-1.2,11.4-1.3c3.7-0.2,7.5-0.1,11.2,0c-1.7-3.9-3.7-7.6-6.1-11.1c-7.6-11.2-17.8-17.6-28.3-19.5
			c-1.3-0.2-2.7-0.4-4-0.5c-5.6-0.4-11.3,0.4-16.6,2.5c-0.5,0.2-1.1,0.4-1.6,0.7c-1.7,0.8-3.4,1.6-5,2.7c0,0,0,0,0,0
			c4.3-1.1,8.4,3.9,5.1,7.6c-10.8,12-19.2,21.4-18.1,39c0.3,4.2,1.1,8.2,2.2,12.2c2.2-0.8,4.7-1.1,7-1.4c3.8-0.5,7.6-0.7,11.5-1
			c5.5-0.4,10,4.2,9.7,9.6c-0.3,6-5.3,8.8-10.7,8.4c-3.6-0.2-8-0.1-12.2-0.7c0.6,1.6,1.2,3.2,1.8,4.8c8.2,22.1,16.3,44.2,24.1,66.4
			c2.4-0.9,5-1.3,7.7-1.6c4.4-0.4,8.9-1,13.3-1.1c11.4-0.2,12.6,16.2,1.2,17.7c-4.4,0.6-8.9,0.6-13.3,0.8c-1.2,0.1-2.4,0.1-3.5,0.1
			c7.2,21.1,14,42.2,21.5,63.2c4.1-0.1,8.4,0.5,12.5,1c5.5-1.1,10.9,3.2,10.5,9c-0.3,5.7-7,10.6-12.5,7.4c-0.9-0.5-2.8-0.4-3.9-0.6
			c0,0-0.1,0-0.1,0c8.3,19.2,20,37.7,40.6,44.3c4.5,1.4,6.8,5.1,7.3,8.9c0.7-1.4,1.2-3,1.3-4.8c0.9-26.9-0.5-53.6-3.5-80.2
			C2163.2,1932.1,2161.2,1932.5,2159,1932.3z"/>
		<path class="st7" d="M2159.9,2007.3c-20.7-6.6-32.4-25.1-40.6-44.3c0,0,0.1,0,0.1,0c1,0.1,3,0,3.9,0.6c5.5,3.2,12.1-1.7,12.5-7.4
			c0.3-5.8-5-10.1-10.5-9c-4.1-0.5-8.3-1.1-12.5-1c-7.5-20.9-14.3-42.1-21.5-63.2c1.1,0,2.3,0,3.5-0.1c4.4-0.2,8.9-0.2,13.3-0.8
			c11.3-1.4,10.2-17.8-1.2-17.7c-4.4,0.1-8.9,0.7-13.3,1.1c-2.8,0.2-5.3,0.7-7.7,1.6c-7.8-22.2-15.9-44.3-24.1-66.4
			c-0.6-1.6-1.2-3.2-1.8-4.8c4.1,0.6,8.6,0.5,12.2,0.7c5.4,0.3,10.4-2.5,10.7-8.4c0.3-5.4-4.2-10-9.7-9.6c-3.8,0.3-7.7,0.5-11.5,1
			c-2.3,0.3-4.7,0.6-7,1.4c-1.1-4-1.9-8-2.2-12.2c-1.1-17.5,7.3-27,18.1-39c3.3-3.7-0.8-8.7-5.1-7.6c0,0,0,0,0,0
			c-23.3,6-27.3,37.4-25.1,57.3c3.6,31.7,16.5,62.9,26.4,93.1c10.6,32.3,20.1,65.9,33.7,97.1c11.3,26,27.4,48.7,55.7,56.7
			c7.6,2.2,11.7-4.3,10.9-10.4C2166.7,2012.4,2164.4,2008.7,2159.9,2007.3z"/>
		<path class="st7" d="M2147.8,1915.9c-4.1,0.4-8.7,0.9-11.7,4c-1.3,1.4-1.6,4.2-0.4,5.8c4.9,6.1,16,5.8,23.2,6.6
			c2.2,0.2,4.2-0.2,5.9-1.2c2.3-1.3,4-3.7,4.2-6.8c0.2-4.1-2.4-7.5-6.1-8.6c-1-0.3-2-0.5-3-0.4
			C2155.9,1915.4,2151.9,1915.4,2147.8,1915.9z"/>
		<path class="st7" d="M2115.7,1829.5c-2.8,1.4-3,6.2-0.5,8c7.1,5.1,17.3,6.4,25.9,7.1c3.3,0.2,6.5-0.8,8.6-3
			c1.1-1.1,1.8-2.6,2.2-4.3c0.7-3.8-1.5-8.8-5.3-10.3c-0.6-0.3-1.3-0.4-2-0.5C2135.2,1825.7,2124.2,1825.1,2115.7,1829.5z"/>
		<path class="st7" d="M2115.9,1747.6c-3.9,0.2-7.6,1.1-11.4,1.3c-5.3,0.4-7.8,9.1-2.1,11c4,1.4,7.8,3.3,11.8,4.5
			c4,1.2,8,2.2,12.1,3.2c2.6,0.6,5.1,0,7.2-1.3c2.7-1.8,4.6-4.8,4.8-8.1c0.4-6.4-4.7-10.6-10.8-10.7c-0.1,0-0.2,0-0.4,0
			C2123.3,1747.5,2119.6,1747.5,2115.9,1747.6z"/>
	</g>
</g>
<g>
	<path class="st15" d="M1816.1,2239.1c0,0-32-32.4-4.2-67.7c23.3-29.6,52.9-8.5,52.9-8.5s3.6-72.8,78.3-61.4
		c27.5,4.2,42.3,33.8,42.3,33.8s33.5-25.9,52.9-8.5c21.2,19,13.2,43.8,19,42.3c33.8-8.5,74,46.5,33.8,97.3
		c-39.2,49.5-76.2,29.6-76.2,29.6l14.8,67.7l-86.7,29.6l-23.3-67.7c0,0-65.6,59.2-114.2,6.3S1801.3,2249.6,1816.1,2239.1z"/>
	<path class="st16" d="M1917.7,2241.2c0,0-7.2-46.9-61.4-27.5c-29.6,10.6-10.6,40.2-10.6,40.2s-24.3,16.7-12.7,44.4
		c21.2,50.8,97.3,23.4,110-14.8c2.1-6.3,21.2,10.6,33.8-6.3c25.4-33.8,10.6-67.7-16.9-69.8C1954,2206.9,1917.7,2205.2,1917.7,2241.2
		z"/>
	<circle class="st16" cx="2039.3" cy="2246.5" r="28.6"/>
	<line class="st17" x1="1930.4" y1="2294.1" x2="1963.8" y2="2385"/>
	<line class="st17" x1="1966.8" y1="2283.5" x2="1998.4" y2="2371.9"/>
	<circle class="st16" cx="1929.3" cy="2195.7" r="11.6"/>
	<circle class="st16" cx="2011.8" cy="2176.7" r="11.6"/>
	<circle class="st16" cx="1881.7" cy="2177.7" r="14.8"/>
	<path class="st18" d="M1896.5,2133.3c8.5-14.8,61.4-12.7,57.1,21.2"/>
	<ellipse class="st3" cx="1828.8" cy="2203.1" rx="12.7" ry="10.6"/>
	<ellipse class="st3" cx="1982.2" cy="2165" rx="9.5" ry="10.6"/>
</g>
<g>
	<path class="st19" d="M141.7,1332.4c0,0-45.4-10.7-36.4-55.3c7.5-37.4,45.4-35.1,45.4-35.1s-31.5-63.8,43.7-93.4
		c27.7-10.9,55.8,6.5,55.8,6.5s18.9-39.7,45.4-35.1c28.9,5,33.3,30.2,38.1,25.9c27.6-25,91.5,0.5,78.3,64.8
		c-12.9,62.7-57,65.3-57,65.3l46.3,49.7l-66.8,70.9l-54.2-45.3c0,0-32.9,84.9-103.7,65.6C105.6,1397.7,132.9,1349.2,141.7,1332.4z"
		/>
	<path class="st16" d="M237.6,1280.7c0,0-29.1-36-70.5,9c-22.6,24.6,9.4,39.7,9.4,39.7s-14.7,26.9,9.4,44.4
		c44.1,32,102.1-31.4,95.7-70.6c-1.1-6.5,24.8-2.2,28.6-23.2c7.5-42.1-22.6-63.1-49.3-50.4C255.1,1232.3,220.3,1250.1,237.6,1280.7z
		"/>
	
		<ellipse transform="matrix(0.871 -0.4913 0.4913 0.871 -554.2959 331.3543)" class="st16" cx="353.7" cy="1221" rx="30.6" ry="27.9"/>
	<line class="st20" x1="274.8" y1="1318.9" x2="349.6" y2="1378.6"/>
	<line class="st20" x1="303.7" y1="1290.7" x2="375.6" y2="1349.2"/>
	
		<ellipse transform="matrix(0.871 -0.4913 0.4913 0.871 -577.9863 270.8156)" class="st16" cx="226.6" cy="1235.9" rx="12.5" ry="11.4"/>
	
		<ellipse transform="matrix(0.871 -0.4913 0.4913 0.871 -539.9055 296.5056)" class="st16" cx="294.6" cy="1176.2" rx="12.5" ry="11.4"/>
	
		<ellipse transform="matrix(0.871 -0.4913 0.4913 0.871 -589.6549 245.9971)" class="st16" cx="173.5" cy="1245.7" rx="15.9" ry="14.4"/>
	<path class="st21" d="M166.1,1200.1c0.8-17,51.2-43.1,63.5-12.1"/>
	
		<ellipse transform="matrix(0.871 -0.4913 0.4913 0.871 -618.7534 234.0785)" class="st3" cx="136.3" cy="1295.1" rx="13.6" ry="10.3"/>
	
		<ellipse transform="matrix(0.871 -0.4913 0.4913 0.871 -547.0071 280.9088)" class="st3" cx="261.3" cy="1181.9" rx="10.2" ry="10.3"/>
</g>
<g>
	<path class="st3" d="M1433.3,1250.6c-19.1-20.8-42.9-37.4-70.4-44.8c-12.5-3.3-25.8-4.7-38.7-3.1c-12.5,1.5-24.3,5.5-36.3,9.2
		c-10.5,3.3-21.8,6.7-32.9,5.4c-12.1-1.4-21.4-9.4-32.1-14.5c-12.8-6.1-26.5-6.3-38.9,1c-11.7,7-20.2,18.8-26.5,30.7
		c-6.6,12.5-11.9,26.5-22.4,36.4c-9.5,8.9-22.3,9.2-34.5,9c-14-0.2-27.4-0.3-40.9,4.2c-13.4,4.4-25.6,10.9-36.4,20.2
		c-17.7,15.2-28.6,36.7-31.4,59.6c-31.2,39.2-21.4,97.5,8.1,134.9c19.1,24.2,44.4,42.2,71.3,57c25.5,14,53.9,23.9,76.8,42.1
		c11.5,9.1,20.1,19.9,26.8,32.9c7,13.5,12.9,27.5,23,39c17.8,20.2,45.1,21.7,69.7,15.8c12.3-3,24-7.7,35.6-12.7
		c15.3-6.6,30.5-13.8,44.6-22.7c24.2-15.3,45.8-36.3,56.5-63.4c4.9-12.2,7.7-25.1,7.3-38.2c-0.4-12.2-4.7-23.9-4.6-36
		c0-4.7,1.2-9.2,4.6-13c4-4.5,9.8-6.6,15.4-8.3c13.5-4.1,27.5-5.9,39.8-13.4c22.7-13.8,35.8-40.2,38.5-66.1c3-29.4-6.8-58-20-83.9
		C1471.2,1300.4,1454.1,1273.3,1433.3,1250.6z M1434.4,1459.4c-3.4-0.8-3.8-5.9-0.3-6.9c2-0.5,4.9-2.6,7.2-4
		c2.8-1.7,4.8-3.7,6.7-6.3c4.4-5.7,14.3,1.2,10.4,7.2c-2.7,4.1-6.3,7.5-10.8,9.5C1443,1461.1,1439.2,1460.5,1434.4,1459.4z
		 M1394.6,1366.5c2.6,40.9-15.9,79.4-38.2,112.5c-12.7,18.8-27.4,36.9-46.8,49.1c-17.8,11.2-38.5,16.2-59.3,17.7
		c-38.4,2.6-79.7-4.6-112.5-25.5c-16.3-10.4-30.5-24-40.7-40.5c-4.1-6.6-7.5-13.7-10.2-21c-11.4-23.4-13.6-52.2-0.8-75.4
		c15-27.4,46.7-42.4,77.1-43c28.4-0.6,55.5,9.7,79.7,23.9c3.5-29.1,14.2-59.8,38.2-77.7c21.2-15.8,51.5-19.3,72.4-1
		c5.8,5.1,10.5,11.2,14.1,17.9c1.3,1.3,2.5,2.7,3.7,4C1385.6,1324,1393.2,1344.7,1394.6,1366.5z M1271.2,1661.5
		c-4.2,0-8.6-0.1-12.8-1.1c-2-0.5-3.9-1.2-5.8-2c-2-0.8-3.5-2.2-5.4-3.2c-2.8-1.5-2.1-6.6,1.4-6.4c3.5,0.2,7.3-0.6,10.9-0.5
		c3.7,0.1,7.5,0.3,11.2,0.1c6.9-0.3,13.7-1.7,20.3-3.9c14.7-5.1,27.2-15.7,35.2-29.1c4.4-7.4,16.4-1.3,12,6.2
		c-9.5,16.3-24.4,28.9-42.2,35.4C1288.1,1659.9,1279.7,1661.4,1271.2,1661.5z M1356.6,1598.7c-6.3,4.3-12.5-5.7-6.3-9.9
		C1356.6,1584.5,1362.9,1594.4,1356.6,1598.7z M1204.5,1235.5c0-0.1-0.1-0.1-0.1-0.2c-1.9-2.9,0.2-6.3,3.3-6.9
		c1.8-0.7,3.9-0.3,5.7,0.2c1.8,0.6,3.9,1.1,5.5,2c3.2,1.8,4.4,5.5,2.8,8.9c-1.6,3.4-5.7,4.1-8.9,2.8c-1.6-0.6-3.1-1.8-4.5-2.8
		C1206.6,1238.5,1205.2,1237.2,1204.5,1235.5z M998.7,1448c-0.8-3.6-1.1-7.2-0.6-10.9c0.2-1.6,0.7-3,1.3-4.5
		c0.7-1.6,1.9-2.6,2.7-3.9c1.8-2.9,6.9-2.4,6.9,1.5c0,2.3,1,5.1,1.2,7.5c0.3,2.2,0.6,4.3,1.2,6.4c1.2,4.5,3.6,7.9,6.7,11.4
		c5.9,6.4-2.4,16.1-9.2,10.2C1003.8,1461.3,1000.2,1454.5,998.7,1448z"/>
	<path class="st3" d="M1176.9,1520.7c-0.1-0.1-0.3-0.3-0.4-0.4c-0.9-0.2-1.7-0.4-2.5-0.6C1174.9,1520.1,1175.9,1520.4,1176.9,1520.7
		z"/>
	<path class="st3" d="M1335.6,1479.6c-4.3,5.3-8.7,10.5-13,15.8C1327.2,1490.4,1331.5,1485.1,1335.6,1479.6z"/>
	<path class="st1" d="M1018.1,1455.5c-3.1-3.4-5.5-6.8-6.7-11.4c-0.6-2.1-0.9-4.2-1.2-6.4c-0.3-2.4-1.3-5.2-1.2-7.5
		c0-3.9-5.1-4.4-6.9-1.5c-0.8,1.4-2.1,2.4-2.7,3.9c-0.6,1.5-1,2.9-1.3,4.5c-0.5,3.7-0.2,7.3,0.6,10.9c1.5,6.5,5.1,13.3,10.2,17.7
		C1015.7,1471.5,1024,1461.9,1018.1,1455.5z"/>
	<path class="st1" d="M1338.2,1621.6c4.4-7.5-7.6-13.6-12-6.2c-8,13.4-20.5,24-35.2,29.1c-6.5,2.3-13.4,3.6-20.3,3.9
		c-3.7,0.2-7.5,0-11.2-0.1c-3.6-0.1-7.4,0.7-10.9,0.5c-3.5-0.2-4.2,4.9-1.4,6.4c1.9,1,3.4,2.4,5.4,3.2c1.9,0.8,3.8,1.5,5.8,2
		c4.1,1,8.5,1.1,12.8,1.1c8.4-0.1,16.9-1.6,24.8-4.5C1313.8,1650.5,1328.7,1637.9,1338.2,1621.6z"/>
	<path class="st1" d="M1350.3,1588.8c-6.2,4.3,0,14.2,6.3,9.9C1362.9,1594.4,1356.6,1584.5,1350.3,1588.8z"/>
	<path class="st1" d="M1458.5,1449.5c3.9-6-6-13-10.4-7.2c-2,2.6-4,4.5-6.7,6.3c-2.4,1.4-5.3,3.4-7.2,4c-3.5,1-3.1,6.1,0.3,6.9
		c4.8,1.1,8.6,1.7,13.3-0.4C1452.3,1457,1455.8,1453.6,1458.5,1449.5z"/>
	<path class="st1" d="M1212.8,1242.4c3.2,1.3,7.3,0.6,8.9-2.8c1.6-3.4,0.4-7.1-2.8-8.9c-1.6-0.9-3.7-1.4-5.5-2
		c-1.8-0.6-3.9-0.9-5.7-0.2c-3.1,0.5-5.2,4-3.3,6.9c0,0.1,0.1,0.1,0.1,0.2c0.7,1.7,2.1,3,3.8,4.1
		C1209.6,1240.6,1211.2,1241.8,1212.8,1242.4z"/>
	<path class="st1" d="M1367.6,1303.4c10.4,19.2,12.3,43.5,9.9,64.5c-7.1,63.1-54.3,110.1-97.9,151.8c-2.1,2-4.8,2.9-7.5,2.5
		c-17.7,2.8-36.2,3.1-54,2.6c-14-0.4-28-1.6-41.7-4.4c0.1,0.1,0.3,0.3,0.4,0.4c-1-0.3-2-0.6-3-1c-3.7-0.8-7.3-1.7-10.9-2.8
		c-29.2-8.6-57.6-25.6-73.1-52.7c-1-1.8-2-3.7-2.9-5.6c2.7,7.3,6.1,14.4,10.2,21c10.2,16.5,24.4,30.1,40.7,40.5
		c32.8,20.9,74.1,28.1,112.5,25.5c20.8-1.4,41.5-6.5,59.3-17.7c19.5-12.2,34.1-30.3,46.8-49.1c22.3-33.1,40.8-71.6,38.2-112.5
		c-1.4-21.7-9-42.5-23.2-59.1C1370.2,1306,1368.9,1304.7,1367.6,1303.4z M1322.6,1495.4c4.3-5.3,8.7-10.5,13-15.8
		C1331.5,1485.1,1327.2,1490.4,1322.6,1495.4z"/>
	<path class="st14" d="M1163,1517c3.6,1.1,7.3,2,10.9,2.8c0.8,0.2,1.7,0.4,2.5,0.6c13.7,2.8,27.8,4.1,41.7,4.4
		c17.9,0.5,36.3,0.2,54-2.6c2.6,0.4,5.4-0.5,7.5-2.5c43.6-41.7,90.8-88.7,97.9-151.8c2.3-21,0.4-45.3-9.9-64.5
		c-3.6-6.7-8.2-12.8-14.1-17.9c-20.9-18.3-51.2-14.8-72.4,1c-23.9,17.9-34.7,48.6-38.2,77.7c-24.2-14.3-51.4-24.5-79.7-23.9
		c-30.5,0.6-62.1,15.6-77.1,43c-12.8,23.3-10.6,52,0.8,75.4c0.9,1.9,1.9,3.8,2.9,5.6C1105.3,1491.5,1133.7,1508.4,1163,1517z
		 M1147.2,1377.3c4-0.6,7.6,3.5,7.7,7.2c0.2,4.4-3.2,7.1-7.2,7.7c-14,2.2-26.2,11.1-32.2,24c-2.7,5.9-3.9,12.5-3.8,19
		c0.1,3.4,0.5,6.7,1.3,10c0.8,3.2,2.4,6.3,3,9.6c0.5,2.5-0.1,5.1-2.4,6.5c-2,1.3-5.3,1.2-6.9-0.6c-5.9-6.5-7.9-17-8.2-25.6
		c-0.3-8.6,1.4-17.3,4.9-25.1C1111.3,1392.6,1128.5,1380.3,1147.2,1377.3z M1313.7,1305.6c9.5-1.9,19,0.9,26.4,7
		c6.5,5.4-2.4,15.1-8.8,9.7c-4.2-3.6-9.8-5.3-15.3-4.4c-3.3,0.5-6.2,2.1-8.9,3.9c-2.6,1.7-5.4,3.2-7.9,5c-1.6,1.2-4.4-0.2-4.3-2.2
		c0.4-5.1,1.6-8.9,5.6-12.4C1304.2,1308.9,1308.8,1306.6,1313.7,1305.6z M1187,1379.2c-6,4.1-12-5.4-6-9.5
		C1187,1365.6,1193,1375.1,1187,1379.2z"/>
	<path class="st3" d="M1098.6,1435.2c0.3,8.6,2.3,19,8.2,25.6c1.7,1.8,4.9,1.8,6.9,0.6c2.3-1.4,2.9-4,2.4-6.5
		c-0.7-3.3-2.2-6.3-3-9.6c-0.8-3.3-1.2-6.6-1.3-10c-0.2-6.5,1-13.1,3.8-19c6-12.9,18.2-21.8,32.2-24c4-0.6,7.3-3.4,7.2-7.7
		c-0.1-3.7-3.7-7.8-7.7-7.2c-18.7,2.9-35.9,15.3-43.6,32.7C1100,1417.9,1098.3,1426.6,1098.6,1435.2z"/>
	<path class="st3" d="M1181,1369.7c-6,4.1,0,13.6,6,9.5C1193,1375.1,1187,1365.6,1181,1369.7z"/>
	<path class="st3" d="M1294.9,1324.6c-0.2,2.1,2.7,3.4,4.3,2.2c2.5-1.8,5.3-3.3,7.9-5c2.7-1.8,5.6-3.4,8.9-3.9
		c5.5-0.9,11.1,0.9,15.3,4.4c6.4,5.5,15.2-4.3,8.8-9.7c-7.4-6.2-16.8-8.9-26.4-7c-4.9,1-9.5,3.2-13.2,6.5
		C1296.5,1315.7,1295.3,1319.4,1294.9,1324.6z"/>
</g>
<g>
	<g>
		<path class="st12" d="M1090.1,835.8c-10.8-10.4-25.6-12.4-38.8-5.6c-9.4,4.8-15.5,12.7-20.9,21.2c-0.8-5.7-3.1-11.5-7.3-17.2
			c-7.8-10.5-19.2-14.2-29.8-12.7c-1.3-22.9-14.1-45.1-38.7-45.4c-2.8-1-5.8-0.4-8.1,1.2c3.9,5.8,6.9,12.3,8.7,18.6
			c4.1,14.2,2.9,28.9-2.3,42.1c9-0.8,18.4,1.1,26.2,5.2c14.5,7.6,22,21.5,25.3,36.8c18.7-9.7,42.3-12.5,60.7-2.3
			c9,4.9,14.6,12,17.9,20.1C1100.7,880.7,1111.2,856.2,1090.1,835.8"/>
		<path class="st12" d="M968.9,861.9c4,3.3,7.5,7.1,10.4,11.2C977.1,868.4,973.2,864.5,968.9,861.9z"/>
		<path class="st12" d="M1078.4,961.6c6.7,1.5,13.5,1.6,19.9-1.4c9.2-4.4,15.8-14.6,14.1-24.9c-1.8-11.3-13.5-17.9-24.3-15.9
			c-0.4,0.1-0.8,0.2-1.3,0.3c0,6.4-0.8,13-2,19.3C1083.4,946.7,1081.2,954.3,1078.4,961.6z"/>
		<path class="st12" d="M875.7,779c0.2-0.5,0.3-1.1,0.5-1.6c1.8-5.5,0.2-11.7-5.5-14.3c-5.1-2.2-12.2,0-14.3,5.5
			c-0.9,2.6-1.9,5.1-2.8,7.7c-0.3,0.5-0.6,1.1-0.8,1.7c-2.6,8.1-8,17.9-5.4,26.3c1.4-1.3,2.7-2.5,4.1-3.8
			C859.2,793.3,867.3,786,875.7,779z"/>
		<path class="st13" d="M701.6,1166.3l19.7,18.8c15.5-12.3,31.6-23.7,48.4-34.2c25.3-15.8,51.9-28.8,79.5-39.7
			c14-3.3,27.9-7.6,41.2-10.8c22.7-5.5,45.4-10.7,68-16.6c40-10.5,79.7-24.5,110.6-52.9c7.6-6.9-2-19.9-9.6-12.9
			c-22.5,20.9-49.6,33.4-78.1,42.9c8-4.4,15.8-9.3,23.3-14.9c3.4-2.5,7.1-5.4,11-8.7c13.6-7.2,26.7-20.5,34.1-28.4
			c4.5-4.8,8.6-9.9,12.3-15.3c6.3-5.3,10.8-13.4,12.4-22c1.5-3.3,2.8-6.6,4.1-10c2.7-7.4,4.9-14.9,6.4-22.6c1.2-6.3,2-12.9,2-19.3
			c0-7.7-1.1-15.2-3.8-21.9c-3.3-8.1-8.9-15.1-17.9-20.1c-18.5-10.2-42-7.4-60.7,2.3c-3.4-15.3-10.8-29.2-25.3-36.8
			c-7.8-4.1-17.2-6-26.2-5.2c5.3-13.2,6.4-27.9,2.3-42.1c-1.8-6.3-4.8-12.8-8.7-18.6c-6.7-9.9-16.1-18-27.5-20.3
			c-3.4-2-7.9-2.6-11.5-0.5c-11,6.2-21.6,14.1-31.7,22.5c-8.4,7-16.5,14.3-24.3,21.5c-1.4,1.3-2.7,2.5-4.1,3.8
			c-15.1,14.2-29.2,29.4-40.6,46.8c-5.8,8.8-10.9,17.9-15.1,27.5c0.6-11.3,2.4-22.6,5.7-34c3.8-13.2,9.2-25.9,15.8-38
			c6.6-12,15.8-22.9,20.8-35.7c0.7-1.7-1-3.9-2.9-3c-20.9,10.2-33.8,36.1-42,56.8c-9.9,24.9-14.3,52-13.9,78.8
			c0.1,10.2,1.4,20.3,3.3,30.3c-0.8,15.2-0.1,30.5-0.1,45.6c0.3,46.9-9.1,91.8-31.9,133.2 M755.6,1121.9
			c29.5-34.8,47.4-73.9,58.4-117.9c9.9-39.5,16.5-80,32.1-117.8c13.9-33.7,34-58.8,65-78c1.4-0.9,2.9,1,1.6,2.1
			c-30.7,24.7-49.6,66-61.3,102.8c-12.9,40.6-18.7,83.1-31.9,123.5 M795.3,1119.4c42-48.4,77.2-104.3,122-150.2
			c2.3-2.4,7.1-0.1,5.3,3.3c-29.4,57.7-79.8,104.4-126.4,148C795.7,1120.9,794.8,1119.9,795.3,1119.4z M981.8,941.3
			c-2.9-3.9-1.9-9.4,1.9-12.4c6.4-5,13.1-11.3,21.5-12.4c4.5-0.6,7.1,3.9,5.8,7.8c-2.7,7.9-10.6,13.4-16.7,18.8
			C990.6,946.3,984.5,944.9,981.8,941.3z M997,1023.2c-10.5,7.6-21.5,14.2-33,20c-22.9,11.6-48.8,21.9-74.8,19.1
			c-2.4-0.3-2.3-3.4-0.5-4.3c22.4-11.4,47.1-17.5,69.5-29.4c12.5-6.6,24.4-14.4,35.6-23c7.9-6.1,14.2-13,24-15.4c4-1,6,3.7,5.1,6.8
			C1019.2,1008.5,1006.4,1016.4,997,1023.2z M961.7,895.3c-2,5.2-8.7,6.8-13.2,4.1c-4.9-3-5.6-9.1-2.4-13.6
			c3.8-5.3,7.6-11.9,14.4-13.5c2-0.5,4.5,1.2,5.2,3.1C968,881.8,964,889.4,961.7,895.3z M979.3,873.1c-3-4.1-6.5-7.9-10.4-11.2
			C973.2,864.5,977.1,868.4,979.3,873.1z M811.5,921.1c-4.1,0.7-7.4-2.1-9.1-5.4c-1.4-2.6-1.1-6.6-1-9.5c0.1-2.8,0.7-5.5,2.6-7.7
			c1.6-1.9,5-3.2,7.3-1.8c3,1.8,4.6,4.1,5.9,7.3c1.2,3,2.4,6.6,1.8,9.8C818.4,917.6,815.3,920.4,811.5,921.1z"/>
		<path class="st12" d="M819.5,1036.7c13.3-40.5,19-83,31.9-123.5c11.7-36.8,30.6-78.1,61.3-102.8c1.3-1.1-0.1-3-1.6-2.1
			c-31,19.2-51.1,44.2-65,78c-15.6,37.9-22.3,78.3-32.1,117.8c-11,44-28.9,83.1-58.4,117.9"/>
		<path class="st12" d="M960.4,872.3c-6.7,1.6-10.6,8.2-14.4,13.5c-3.2,4.5-2.5,10.6,2.4,13.6c4.5,2.7,11.1,1.1,13.2-4.1
			c2.3-5.9,6.3-13.5,4-19.9C965,873.5,962.5,871.8,960.4,872.3z"/>
		<path class="st12" d="M1005.1,916.5c-8.3,1.1-15,7.4-21.5,12.4c-3.8,2.9-4.7,8.5-1.9,12.4c2.7,3.6,8.8,5,12.4,1.8
			c6.1-5.3,14.1-10.8,16.7-18.8C1012.2,920.5,1009.7,915.9,1005.1,916.5z"/>
		<path class="st12" d="M817.2,903.9c-1.3-3.3-2.9-5.5-5.9-7.3c-2.4-1.4-5.7-0.1-7.3,1.8c-1.9,2.2-2.4,4.9-2.6,7.7
			c-0.1,2.9-0.4,6.9,1,9.5c1.8,3.3,5.1,6.1,9.1,5.4c3.8-0.6,6.9-3.4,7.6-7.3C819.6,910.6,818.4,906.9,817.2,903.9z"/>
		<path class="st12" d="M917.3,969.1c-44.8,45.9-80,101.8-122,150.2c-0.5,0.6,0.4,1.6,1,1c46.6-43.6,97-90.3,126.4-148
			C924.4,969,919.7,966.7,917.3,969.1z"/>
		<path class="st12" d="M1017.7,990.1c-9.8,2.4-16.1,9.4-24,15.4c-11.2,8.6-23.1,16.3-35.6,23c-22.4,11.9-47,18-69.5,29.4
			c-1.8,0.9-1.9,4,0.5,4.3c26,2.8,51.9-7.5,74.8-19.1c11.5-5.8,22.6-12.4,33-20c9.4-6.8,22.2-14.7,25.8-26.2
			C1023.7,993.9,1021.8,989.2,1017.7,990.1z"/>
	</g>
	<g>
		<path class="st8" d="M739.4,1110.7c3.4,2.9,1.7,9.1-3.2,8.5c-16-1.8-27.4-12.8-41.1-1.7c-3.2,2.6-14.3,7.6-16.9,10.8
			c1.9,1.3,10.7,10.8,12.2,12.5c2.6,2.8,5,5.8,7.4,8.8c3.5,4.2,2.3,10.6-2.2,13.4c-5.1,3.2-10.2,0.8-13.1-3.8
			c-1.9-3-4.6-6.6-6.5-10.3c-0.9,1.4-6.6-6.3-8.3-5.8c-20.3,5.9-37.9,38.1-35.2,52.2l3.3,23.5c1.2-7,2.5,16.7,16.5,38.6
			c10.2,16,31.6,25.4,31.6,25.3c-5.3-19.5,11.9-18.3,12.2-17.3c39.5,3.7,45.4-29.3,49.8-31.9c49.3-29.1,33.4-61.9,33.9-66
			c3.4-24.5-9-28-20.5-37.8c-1-0.9-1.2-2.4-1.9-3.6c-2.9-4.8-6.9-8.9-11.6-12"/>
		<path class="st7" d="M739.3,1110.7c-18.4-15.5-52.9-3.5-68.3,9.3c-9.7,8.1-22.4,13.5-36.4,42c-6.5,13.3-5.3,35.4-4.5,40.1
			c5.1,29.5,41.1,54.2,41.2,54.2c-11.6-16.3-30.9-38.1-31.2-53.9c-0.3-19.4,2.5-20.5,3.3-19.5c2.8,3.5,15.2,11.5,19.3,13.3
			c10.7,4.6,16.2-6.6,1.2-15.6c-12.3-7.3-10.3-14.3-12.4-15.7c5.6-16.3,15.3-18.8,16.3-20.2c1.9,3.7,13.1,11.7,15,14.7
			c2.9,4.6,8,7,13.1,3.8c4.5-2.9,5.7-9.2,2.2-13.4c-2.4-3-4.8-6-7.4-8.8c-1.6-1.7-6-6.9-7.9-8.2c2.6-3.2,7.1-7,10.8-9
			c20.5-10.9,26.8-6.3,42.8-4.5C741.1,1119.8,742.8,1113.6,739.3,1110.7"/>
		<path class="st7" d="M754.3,1197.6c-3.6-1.3-7.4-1.9-11.1-3.1c-5.1-1.7-10.7,5.4-6.1,9.4c3.2,2.8,5.9,6,9.2,8.7
			c3.2,2.6,6.6,5.1,10,7.5c2.2,1.6,4.7,1.9,7.2,1.5c3.2-0.6,6.1-2.7,7.5-5.7c2.8-5.8-0.3-11.6-5.9-14c-0.1,0-0.2-0.1-0.3-0.1
			C761.3,1200.3,757.8,1198.8,754.3,1197.6z"/>
	</g>
</g>
<g>
	<path class="st3" d="M1431.5,2162.1c-5.2,6.1-10.4,12.2-15.5,18.3c-23.8,27.9-47.5,55.9-71.1,84c-14.4,17.1-28.7,34.2-43.1,51.3
		c-11.3,13.4-26.5,27.3-34.6,43.4c-1.9,0.9-3.4,2.7-3.9,4.9c0.6-0.7,1.4-1.1,2.3-1.3c0.3-1.4,1.1-2.6,2.5-3.7
		c10.4-7.9,25.4,2.3,22.5,14.8c-1.6,6.8-9.8,6.8-15.4,5.3c-1.5-0.4-3.1-1-4.7-1.7c2.5,5.5,9.7,8.9,16.8,6.7c9.4-3,15.4-13.8,20.9-21
		c9.2-12.1,18.3-24.3,27.5-36.5c18.9-25.2,37.7-50.4,56.6-75.6c18.4-24.7,39.3-48.9,55.1-75.4c1.8-3.1,0.8-6-1.3-7.8
		c-0.2-0.2-0.5-0.4-0.7-0.6C1444.8,2161,1436.5,2156.1,1431.5,2162.1z"/>
	<g>
		<path class="st12" d="M1688.5,1655.2c-23.7,16.1-41.5,36.6-55.5,59.8c-38,48.2-61.1,107.4-79,166.4
			c-18.2,59.9-34.5,120.3-59.1,177.4c-1.6,1.6-3.1,3.3-4.6,5c1,0.4,2,0.9,2.8,1.6c4.3-4,9.1-7.6,13.6-11.3
			c11.4-9.4,22.7-19.1,33.6-29.1c5.1-4.7,10.2-9.6,15.2-14.5c2.5-4.4,4.9-8.7,6.9-12.8c17.6-34.2,27.1-72,34.8-109.5
			c10.8-52.4,20.3-110.5,46.8-157.8c13.5-17.7,29-33.8,47.2-47.7c3.5-2.7,4.3-6.6,3.4-10c1.2-0.9,2.4-1.8,3.6-2.6
			C1707.9,1663.6,1698,1648.8,1688.5,1655.2z"/>
		<path class="st13" d="M1439.8,2177.4c11.2-8.4,20.8-18.6,31.1-28.5c15.1-14.5,30.5-28.9,45.8-43.2c30-28.2,60.1-56.7,87.1-87.9
			c44-50.7,80.7-108.8,96.7-174.4c1.8-3.4,3.6-6.9,5.3-10.3c2.5-5.1-0.2-9.5-4.1-11.4c-4.3-4.3-13.3-3.7-14.8,4
			c-0.6,3.3-1.4,6.6-2.1,9.8c-24.3,46.7-53.7,90.7-88,130.7c-13.1,15.3-26.9,30-41.3,44c-5,4.9-10.1,9.7-15.2,14.5
			c-10.9,10.1-22.2,19.7-33.6,29.1c-4.5,3.7-9.3,7.3-13.6,11.3c-0.8-0.7-1.8-1.3-2.8-1.6c-2.5-0.9-5.4-0.5-7.7,2.1
			c-16.5,19.6-31.5,40.4-44.3,62.6c-10.6,18.3-24,40.1-28.4,61.7"/>
		<path class="st13" d="M1599.5,1989.9c0.3-1.2,0.7-2.4,1.3-3.5c1.9-3.5,6.5-4.7,9.6-2c3.1,2.7,2.6,7.4-0.6,9.8
			c-1,0.8-2.1,1.3-3.3,1.8C1602.9,1997.5,1598.5,1993.7,1599.5,1989.9z"/>
		<path class="st13" d="M1531.1,2053c-0.4,0.4-0.8,0.8-1.1,1.2c-0.8,0.9-1.4,1.8-1.7,2.8c-0.5,0.6-1,1.2-1.6,1.7
			c-0.3-0.1-0.5-0.1-0.8-0.1c-0.1-0.2-0.2-0.4-0.3-0.6c-0.1-0.1-0.2-0.2-0.3-0.3C1527.3,2056.2,1529.2,2054.6,1531.1,2053z"/>
		<path class="st13" d="M1591,2018c-12.9,11.4-25.5,23.4-39.1,33.9c-7.8,6-16.1,10.7-23.6,17.1c-6.7,5.7-13,11.9-20.8,16
			c-1.5,0.8-2.8-0.8-1.9-2.2c5.6-8.2,13.5-13.9,20.6-20.7c5.7-5.4,10.2-11.7,15.6-17.4c12-12.8,26-23.9,39.1-35.6
			C1587.3,2003.6,1597.4,2012.3,1591,2018z"/>
		<path class="st3" d="M1439.8,2177.4c-0.2-0.2-0.5-0.4-0.7-0.6c-0.3-6.1-8.5-11-13.6-5"/>
		<path class="st3" d="M1281.2,2393.7c9.4-3,15.4-13.8,20.9-21c9.2-12.1,18.3-24.3,27.5-36.5c18.9-25.2,37.7-50.4,56.6-75.6
			c18.4-24.7,39.3-48.9,55.1-75.4"/>
		<path class="st3" d="M1262,2368.6c10.4-7.9,25.4,2.3,22.5,14.8c-1.6,6.8-9.8,6.8-15.4,5.3"/>
		<path class="st3" d="M1425.5,2171.8c-5.2,6.1-10.4,12.2-15.5,18.3c-23.8,27.9-47.5,55.9-71.1,84c-14.4,17.1-28.7,34.2-43.1,51.3
			c-11.3,13.4-26.5,27.3-34.6,43.4"/>
		<path class="st12" d="M1526.2,2062.1c-7.1,6.8-15,12.6-20.6,20.7c-0.9,1.4,0.4,2.9,1.9,2.2c7.9-4.1,14.1-10.3,20.8-16
			c7.5-6.4,15.8-11.1,23.6-17.1c13.6-10.5,26.2-22.5,39.1-33.9c6.4-5.7-3.7-14.4-10.1-8.7c-13.1,11.6-27.1,22.8-39.1,35.6
			C1536.5,2050.5,1531.9,2056.7,1526.2,2062.1z"/>
		<path class="st12" d="M1606.5,1996c1.2-0.5,2.3-1,3.3-1.8c3.2-2.4,3.7-7.1,0.6-9.8c-3.1-2.7-7.7-1.5-9.6,2c-0.6,1.1-1,2.3-1.3,3.5
			C1598.5,1993.7,1602.9,1997.5,1606.5,1996z"/>
		<path class="st1" d="M1269,2388.7c5.6,1.4,13.8,1.5,15.4-5.3c3-12.4-12.1-22.7-22.5-14.8"/>
	</g>
</g>
</svg>
