<?xml version="1.0" encoding="utf-8"?>
<!-- Generator: Adobe Illustrator 22.1.0, SVG Export Plug-In . SVG Version: 6.00 Build 0)  -->
<svg version="1.1" id="Layer_1" xmlns="http://www.w3.org/2000/svg" xmlns:xlink="http://www.w3.org/1999/xlink" x="0px" y="0px"
	 viewBox="0 0 99.2 73.6" style="enable-background:new 0 0 99.2 73.6;" xml:space="preserve">
<style type="text/css">
	.st0{fill:#D02030;}
	.st1{fill:none;stroke:#F1ADCC;stroke-miterlimit:10;}
	.st2{fill:#D02030;stroke:#D02030;stroke-width:5;stroke-linejoin:round;stroke-miterlimit:10;}
	.st3{font-family:'DINAlternate-Bold';}
	.st4{font-size:21.5489px;}
	.st5{fill:#FAFCF8;}
</style>
<g>
	<g>
		<path class="st0" d="M9.5,2h79.4c0,0,7.5-1.7,7.6,15.8c0.1,12.7-40.5,54.5-47,53.9S2.7,33,1.6,20.4S9.5,2,9.5,2z"/>
		<g>
			<path class="st1" d="M13.6,34C8.7,27.3,5.3,24.6,5,21.4C3.9,9.8,12.3,5.2,12.3,5.2h73.2c0,0,6.9-2.4,7,13.8c0,4-2.7,8.3-9.3,17.3
				"/>
			<path class="st1" d="M65.8,54.2c-8.6,9-16.5,13.6-16.5,13.6s-5.7-2.6-17.1-13.6"/>
		</g>
	</g>
	<g>
		<g>
			<text transform="matrix(1.01 0 0 1 16.9505 29.9997)"><tspan x="0" y="0" class="st2 st3 st4">SUPER</tspan><tspan x="-6.4" y="21" class="st2 st3 st4">RECIPES</tspan></text>
		</g>
		<text transform="matrix(1 0 0 1 17.2694 30.0015)"><tspan x="0" y="0" class="st5 st3 st4">SUPER</tspan><tspan x="-6.4" y="21" class="st5 st3 st4">RECIPES</tspan></text>
	</g>
</g>
</svg>
